<?xml version="1.0" encoding="UTF-8" standalone="no"?>
<svg width="349px" height="281px" viewBox="0 0 349 281" version="1.1" xmlns="http://www.w3.org/2000/svg" xmlns:xlink="http://www.w3.org/1999/xlink">
    <!-- Generator: Sketch 39.1 (31720) - http://www.bohemiancoding.com/sketch -->
    <title>bone</title>
    <desc>Created with Sketch.</desc>
    <defs>
        <path d="M99.4624529,243.336575 C99.4624529,243.336575 84.2320736,221.023522 93.7676874,216.246604 C103.303301,211.469685 112.263694,234 112.263694,234 L232.832525,234 C232.832525,234 237.437726,213.480897 249.834171,216.246604 C262.230617,219.012311 246.336216,243.336575 246.336216,243.336575 C246.336216,243.336575 263.068784,260.520829 256.451479,269.87664 C249.834174,279.232451 233.263519,252 233.263519,252 L112.716119,252 C112.716119,252 107.389412,272.411958 93.7676874,269.876639 C80.1459633,267.341319 99.4624529,243.336575 99.4624529,243.336575 Z" id="path-1"></path>
        <mask id="mask-2" maskContentUnits="userSpaceOnUse" maskUnits="objectBoundingBox" x="0" y="0" width="169.095843" height="56.2516398" fill="white">
            <use xlink:href="#path-1"></use>
        </mask>
        <path d="M11.4002848,71.1630267 C11.4002848,71.1630267 -3.8300945,48.8499741 5.70551926,44.0730553 C15.241133,39.2961365 24.2015259,61.8264517 24.2015259,61.8264517 L144.770357,61.8264517 C144.770357,61.8264517 149.375558,41.3073482 161.772003,44.0730553 C174.168449,46.8387623 158.274048,71.1630263 158.274048,71.1630263 C158.274048,71.1630263 175.006616,88.3472811 168.389311,97.7030917 C161.772006,107.058902 145.201351,79.8264517 145.201351,79.8264517 L24.6539507,79.8264517 C24.6539507,79.8264517 19.3272434,100.23841 5.70551926,97.7030905 C-7.91620485,95.1677709 11.4002848,71.1630267 11.4002848,71.1630267 Z" id="path-3"></path>
        <mask id="mask-4" maskContentUnits="userSpaceOnUse" maskUnits="objectBoundingBox" x="0" y="0" width="169.095843" height="56.2516398" fill="white">
            <use xlink:href="#path-3"></use>
        </mask>
        <path d="M193.961374,132.403606 C193.961374,132.403606 178.730994,110.090554 188.266608,105.313635 C197.802222,100.536716 206.762615,123.067031 206.762615,123.067031 L327.331445,123.067031 C327.331445,123.067031 331.936646,102.547928 344.333092,105.313635 C356.729537,108.079342 340.835137,132.403606 340.835137,132.403606 C340.835137,132.403606 357.567705,149.587861 350.9504,158.943671 C344.333094,168.299482 327.762439,141.067031 327.762439,141.067031 L207.215039,141.067031 C207.215039,141.067031 201.888332,161.47899 188.266608,158.94367 C174.644884,156.408351 193.961374,132.403606 193.961374,132.403606 Z" id="path-5"></path>
        <mask id="mask-6" maskContentUnits="userSpaceOnUse" maskUnits="objectBoundingBox" x="0" y="0" width="169.095843" height="56.2516398" fill="white">
            <use xlink:href="#path-5"></use>
        </mask>
    </defs>
    <g id="Page-1" stroke="none" stroke-width="1" fill="none" fill-rule="evenodd">
        <g id="дерево" transform="translate(340.000000, -263.000000)"></g>
        <g id="bone" transform="translate(-3.000000, -4.000000)" stroke="#979797" stroke-width="2" fill="#FFFFFF">
            <use id="Rectangle-5" mask="url(#mask-2)" transform="translate(173.452078, 243.707567) rotate(-11.000000) translate(-173.452078, -243.707567) " xlink:href="#path-1"></use>
            <use id="Rectangle-5" mask="url(#mask-4)" transform="translate(85.389910, 71.534018) rotate(-35.000000) translate(-85.389910, -71.534018) " xlink:href="#path-3"></use>
            <use id="Rectangle-5" mask="url(#mask-6)" transform="translate(267.950999, 132.774598) rotate(25.000000) translate(-267.950999, -132.774598) " xlink:href="#path-5"></use>
        </g>
    </g>
</svg>