<svg
  width="1290"
  height="2051"
  viewBox="0 0 1290 2051"
  xmlns="http://www.w3.org/2000/svg"
  xmlns:xlink="http://www.w3.org/1999/xlink"
>
	<title>рыцарь1</title><defs><path d="M40.754 17.54c-.228-4.417 3.163-7.997 7.58-7.997h100.289c4.414 0 7.504 3.541 6.9 7.925l-44.76 325.037c-.603 4.376-4.644 8.387-9.022 8.958l-35.528 4.628c-4.38.571-8.116-2.548-8.344-6.962L40.754 17.539z" id="a"/><mask id="o" x="0" y="0" width="114.855" height="346.616" fill="#fff"><use xlink:href="#a"/></mask><path d="M67.239 331.363c-.116-4.415 3.302-7.258 7.616-6.354l46.763 9.8c4.322.905 7.447 5.199 6.98 9.589l-26.149 245.541c-.467 4.39-4.427 7.95-8.841 7.95H82.21c-4.416 0-8.089-3.572-8.205-7.994L67.24 331.363z" id="b"/><mask id="p" x="0" y="0" width="61.408" height="273.047" fill="#fff"><use xlink:href="#b"/></mask><path d="M20.768 14.398c-.228-4.416 3.163-7.996 7.58-7.996h100.289c4.414 0 7.504 3.54 6.9 7.924l-44.76 325.037c-.603 4.377-4.644 8.388-9.022 8.958l-35.528 4.63c-4.38.57-8.116-2.55-8.344-6.964L20.768 14.398z" id="c"/><mask id="q" x="0" y="0" width="114.855" height="346.616" fill="#fff"><use xlink:href="#c"/></mask><path d="M44.405 321.418c0-4.415 3.249-9.508 7.249-11.37l40.73-18.973c4.004-1.864 6.87.183 6.403 4.573L72.639 541.19c-.468 4.39-4.427 7.949-8.842 7.949H52.4a7.998 7.998 0 0 1-7.995-7.995V321.418z" id="d"/><mask id="r" x="0" y="0" width="54.431" height="258.753" fill="#fff"><use xlink:href="#d"/></mask><path d="M234 298s3.692 1.152 8.792 1.152S253 298 253 298v23.453s-4.75-1.694-9.5-1.694-9.5 1.694-9.5 1.694V298z" id="e"/><mask id="s" x="0" y="0" width="19" height="23.453" fill="#fff"><use xlink:href="#e"/></mask><path d="M96.81 1567.4s39.183 41.542 96.678 49.835c57.494 8.293 109.844 13.398 184.525-9.276 74.681-22.674 108.202-62.038 108.202-62.038l70.544 76.54L87 1699l9.81-131.6z" id="f"/><mask id="t" x="0" y="0" width="469.759" height="153.079" fill="#fff"><use xlink:href="#f"/></mask><path d="M106.408 25.134c4.535-6.39 11.873-12.868 18.856-17.437C133.03 2.615 142.047.513 142.047.513h21.242l60.945 3.492s10.685 3.112 22.122 13.141S263 38 263 38s-43.379-9.128-99.71 6.278c-56.333 15.406-87.612 57.853-87.612 57.853s21.151-63.498 30.73-76.997z" id="g"/><mask id="u" x="0" y="0" width="187.322" height="101.618" fill="#fff"><use xlink:href="#g"/></mask><path id="h" d="M330 132h25v1973h-25z"/><mask id="v" x="0" y="0" width="25" height="1973" fill="#fff"><use xlink:href="#h"/></mask><path id="i" d="M315 208h56v39h-56z"/><mask id="w" x="0" y="0" width="56" height="39" fill="#fff"><use xlink:href="#i"/></mask><path d="M53.48 397.556c5.293-17.944 135.922-158.11 135.922-158.11s-2.05 67.376 34.394 75.278c52.717 11.43 222.392 0 222.392 0s43.652-9.073 63.067-29.566 27.377-45.713 27.377-45.713 5.411 20.31 5.411 38.638-5.41 36.64-5.41 36.64 10.033-9.791 20.502-32.784c5.124-11.253 73.323 86.163 73.323 115.617 0 29.454-69.626 117.536-73.323 104.201-7.24-26.115-20.503-33.273-20.503-33.273s5.411 18.943 5.411 41.732c0 22.788-5.41 45.598-5.41 45.598S526 530.625 509.254 513.107c-16.746-17.519-63.067-26.895-63.067-26.895s-192.733-24.155-222.392 0c-29.659 24.155-34.394 69.602-34.394 69.602S48.187 415.5 53.48 397.556z" id="j"/><mask id="x" x="0" y="0" width="577.123" height="316.369" fill="#fff"><use xlink:href="#j"/></mask><rect id="k" x="321" y="316" width="43" height="164" rx="8"/><mask id="y" x="0" y="0" width="43" height="164" fill="#fff"><use xlink:href="#k"/></mask><path d="M125 302a7.889 7.889 0 0 1 8.002-7.902s187.694 2.332 281.544 2.717c1.714.007 1.821-1.52 1.821-1.52l8.1.766c4.395.416 9.825-2.299 12.154-6.048 0 0 14.625-24.386 19.638-27.08 2.331-1.253 9.656 4.562 17.163 5.047 7.506.484 12.004-3.781 15.358-3.781 13.993 0 10.214 23.913 6.898 40.772-3.315 16.859-12.198 30.862-18.843 33.597-6.644 2.736-25.933-4.266-25.933-4.266-4.197-1.365-11.175-2.218-15.57-1.906l-18.965 1.343-2.472-1.908-280.905 8.915A7.702 7.702 0 0 1 125 333v-31z" id="l"/><mask id="z" x="0" y="0" width="373.774" height="77.994" fill="#fff"><use xlink:href="#l"/></mask><rect id="m" x="65.961" y="107.732" width="66" height="219.723" rx="8"/><mask id="A" x="0" y="0" width="66" height="219.723" fill="#fff"><use xlink:href="#m"/></mask><path d="M54.768 14.22c2.054-3.9 7.3-7.061 11.725-7.061h18.982c4.422 0 9.704 3.164 11.772 7.06 0 0 69.257 127.815 45.403 122.917-23.855-4.898-100.989-6.127-129.038 0-28.049 6.128 41.156-122.915 41.156-122.915z" id="n"/><mask id="B" x="0" y="0" width="140.728" height="130.189" fill="#fff"><use xlink:href="#n"/></mask></defs><g transform="translate(-26 -83)" stroke="#979797" fill="none" fill-rule="evenodd"><g transform="translate(258 1515)"><use mask="url(#o)" stroke-width="2" fill="#D8D8D8" transform="rotate(-14 98.171 182.851)" xlink:href="#a"/><use mask="url(#p)" stroke-width="2" fill="#D8D8D8" transform="rotate(16 97.94 461.365)" xlink:href="#b"/><path d="M104.705 356.187c2.842 2.78 53.748 11.262 64.24 8.92 13.142-2.936 22.187-6.153 43.478-15.316 21.29-9.164 40.69-20.894 40.69-20.894s-32.382-9.143-43.607-12.444c-11.226-3.302-23.897-7.55-45.57-8.6-15.964-.772-64.713 19.552-64.348 23.719l1.091 12.476c.195 2.227 1.183 9.36 4.026 12.14z" fill="#C6C5C5"/><path d="M116.743 359.067s-5.456-9.395-6.232-18.269c-.776-8.873 3.1-17.533 3.1-17.533M208.097 351.075s-5.456-9.395-6.232-18.27c-.777-8.873 3.1-17.533 3.1-17.533M133.14 361.485s-5.664-11.773-6.629-22.8c-.965-11.028 2.736-21.692 2.736-21.692M162.264 365.79s-9.409-15.046-10.656-29.31c-1.248-14.264 5.621-28.24 5.621-28.24M195.802 356.003s-9.097-11.473-10.061-22.5c-.965-11.028 6.168-21.992 6.168-21.992M224.69 344.186s-5.176-6.206-5.7-12.192c-.523-5.986 3.588-11.958 3.588-11.958M236.267 337.752s-4.932-3.402-5.233-6.849c-.301-3.446 4.016-7.055 4.016-7.055" stroke-linecap="square"/><g><path d="M17.299 589.811c4.79 2.265 99.699 11.947 118.836 10.96 23.972-1.236 40.659-2.915 80.183-7.969 39.525-5.054 76.07-12 76.07-12s-56.503-8.29-76.07-11.256c-19.566-2.965-41.572-6.674-80.183-8.712-28.44-1.502-115.436 9.4-118.836 12.522-3.4 3.122-7.608 5.044-7.608 8.85 0 3.808 2.818 5.34 7.608 7.605z" fill="#C6C5C5"/><path d="M43.686 593.429s-8.29-6.835-8.29-13.025 8.29-11.95 8.29-11.95M208.378 593.429s-8.29-6.835-8.29-13.025 8.29-11.95 8.29-11.95M72.643 596.096s-8.29-8.493-8.29-16.186c0-7.692 8.29-14.85 8.29-14.85M124.077 600.84s-14.479-10.986-14.479-20.936 14.479-19.21 14.479-19.21M185.61 596.096s-14.478-8.493-14.478-16.186c0-7.692 14.478-14.85 14.478-14.85M239.145 589.665s-8.29-4.61-8.29-8.785c0-4.176 8.29-8.061 8.29-8.061M260.862 585.912s-8.29-2.654-8.29-5.058 8.29-4.64 8.29-4.64" stroke-linecap="square"/></g></g><g transform="translate(200 1562)"><use mask="url(#q)" stroke-width="2" fill="#D8D8D8" transform="rotate(-7 78.185 179.71)" xlink:href="#c"/><use mask="url(#r)" stroke-width="2" fill="#D8D8D8" transform="rotate(8 71.62 419.762)" xlink:href="#d"/><path d="M56.77 336.929c2.846 2.83 53.772 11.535 64.261 9.168 13.14-2.966 22.181-6.224 43.46-15.513 21.28-9.288 40.666-21.19 40.666-21.19s-32.4-9.348-43.632-12.723c-11.232-3.374-23.912-7.715-45.59-8.814-15.966-.81-64.69 19.79-64.32 24.028l1.11 12.691c.199 2.266 1.198 9.522 4.044 12.353z" fill="#C6C5C5"/><path d="M68.813 339.876s-5.47-9.564-6.26-18.59c-.79-9.027 3.074-17.83 3.074-17.83M160.167 331.884s-5.47-9.564-6.26-18.591c-.79-9.027 3.074-17.83 3.074-17.83M85.216 342.36s-5.682-11.983-6.663-23.2c-.982-11.218 2.703-22.06 2.703-22.06M114.351 346.782s-9.432-15.318-10.702-29.827c-1.27-14.51 5.58-28.715 5.58-28.715M147.878 336.878s-9.114-11.683-10.096-22.9c-.981-11.218 6.137-22.36 6.137-22.36M176.753 324.902s-5.186-6.32-5.719-12.41c-.533-6.088 3.57-12.157 3.57-12.157M188.321 318.375s-4.937-3.468-5.243-6.973c-.307-3.506 4.006-7.17 4.006-7.17" stroke-linecap="square"/><g><path d="M30.51 554.899c4.334 3.259 90.22 17.192 107.538 15.772 21.693-1.779 36.793-4.195 72.56-11.468 35.768-7.273 68.838-17.268 68.838-17.268s-51.13-11.93-68.837-16.198c-17.707-4.267-37.62-9.604-72.56-12.537-25.737-2.161-104.462 13.526-107.54 18.02-3.076 4.492-6.884 7.257-6.884 12.736 0 5.48 2.55 7.684 6.885 10.943z" fill="#C6C5C5"/><path d="M54.389 560.105s-7.502-9.835-7.502-18.742c0-8.908 7.502-17.197 7.502-17.197M203.423 560.105s-7.502-9.835-7.502-18.742c0-8.908 7.502-17.197 7.502-17.197M80.593 563.943s-7.502-12.222-7.502-23.291c0-11.07 7.502-21.371 7.502-21.371M127.136 570.77s-13.102-15.81-13.102-30.128S127.136 513 127.136 513M182.82 563.943s-13.102-12.222-13.102-23.291c0-11.07 13.102-21.371 13.102-21.371M231.265 554.689s-7.502-6.634-7.502-12.643c0-6.008 7.502-11.6 7.502-11.6M250.917 549.288s-7.501-3.82-7.501-7.278c0-3.46 7.501-6.679 7.501-6.679" stroke-linecap="square"/></g></g><g transform="translate(0 377)"><path d="M149.788 424.883c-10.59 28.548-23.262 83.834-23.262 111.83 0 60.444 16.328 96.349 26.773 109.922 24.139 31.371 33.888 57.54 48.196 81.386 17.348 28.913 18.087-2.182 42.005-2.182 17.45 0 31.37 18.53 45.712 2.182C320.943 691.85 359.266 588.918 345 518.5 324.046 415.07 299.557 320 243.5 320c-24.514 0-68.202 36.11-93.712 104.883z" fill="#E7E7E7"/><path d="M275 132.57c18.79 16.35 35.352 55.386 35.352 55.386s15.712 56.664-3.677 78.3c-12.08 13.479-36.948 28.94-59.154 32.477-22.206 3.537-42.766 8.13-67.734-6.546-24.968-14.675-30.542-30.988-37.232-55.15-6.69-24.16 7.713-58.784 5.002-71.64-.245-1.16-4.038-24.437-16.713-33.646-10.542-7.66-14.468-10.512-24.767-4.24-4.489 2.735-.43 11.153-11.314 26.133-10.884 14.981-22.02 23.842-25.293 24.253-7.425.934-16.292 4.737-29.49-4.852-13.198-9.589-12.56-34.113-12.508-34.186.25-.343 13.075 18.025 13.075 18.025s16.596 9.04 27.22 3.93c10.624-5.112 13.107-8.72 16.215-22.32 3.108-13.6 1.543-23.627-4.233-30.111-10.18-11.428-37.201 9.715-36.059 8.154 4.052-5.539 2.524-17.027 7.63-24.662a28.358 28.358 0 0 1 2.354-3.035c6.782-7.656 17.384-12.223 20.793-14.664 11.565-8.281 35.654-9.994 41.738-10.193 6.083-.2-26.023-5.641-18.516-5.732 3.072-.037 12.675-5.506 23.892-7.445 7.945-1.374 18.221.618 20.804.478 6.23-.34 19.476 4.79 24.951 7.07 12.923 5.383 19.277 10 29.392 17.348 10.115 7.35 21.414 22.554 21.414 22.554-6.344-10.087-38.332-46.247-29.144-42.036 45.455 20.83 67.214 60.001 86.003 76.35z" fill="#F7CD03"/><use mask="url(#s)" stroke-width="2" fill="#E70F0F" xlink:href="#e"/><path fill="#8B8B8B" d="M464.522 545.5L324.032 429l-74.52 65.793v91.44l86.18 41.667z"/><path d="M245 547c8.284 0 15-6.716 15-15 0-8.284-6.716-15-15-15-8.284 0-15 6.716-15 15 0 8.284 6.716 15 15 15z" fill="#D8D8D8"/><path d="M329.741 585.268c4.088-1.02 2.313-22.254-3.963-47.428-6.277-25.174-14.679-44.755-18.767-43.736-4.087 1.02-2.313 22.253 3.963 47.427 6.277 25.174 14.68 44.756 18.767 43.737zM377.565 565.37c4.105-2.277-6.76-29.728-18.614-51.113-11.854-21.385-24.792-36.877-28.898-34.6-4.106 2.275 2.176 21.456 14.03 42.841 11.853 21.385 29.376 45.147 33.482 42.871zM413.373 528.163c3.32-3.32-13.812-25.833-30.367-42.388s-32.667-27.284-35.986-23.965c-3.32 3.32 7.41 19.43 23.965 35.986 16.555 16.555 39.069 33.687 42.388 30.367z" fill="#3C3B3B"/></g><use mask="url(#t)" stroke-width="2" fill="#C7C4C4" xlink:href="#f"/><g transform="translate(66 1102)"><path d="M211 527c124.264 0 253.711-66.66 253.711-211.358 0-82.12-77.081-153.18-134.627-194.182C272.538 80.46 264.741 3 211 3c-66.726 0-73.951-18.011-115.155 35.713C60.314 85.04.289 277.826.289 344.826.289 489.525 86.736 527 211 527z" fill="#E7E7E7"/><use mask="url(#u)" stroke-width="2" fill="#5F5F5F" xlink:href="#g"/></g><g transform="rotate(14 317.623 2586.83)"><use mask="url(#v)" stroke-width="2" fill="#D8D8D8" xlink:href="#h"/><path fill="#FFFCFC" d="M343.5 0L371 144h-55z"/><use mask="url(#w)" stroke-width="2" fill="#FFFCFC" xlink:href="#i"/><path d="M614.905 212.558c5.677 9.649 30.64 37.37 45.788 83.205 15.149 45.835 47.58 57.457 68.55 68.891 25.916 14.13 71.441 33.846 71.441 33.846s-39.126 18.455-71.44 41.057c-16.669 11.658-51.042 53.605-68.55 82.694-7.095 11.785-26.9 63.208-55.71 93.828C576.171 646.699 560 653 560 653V144s49.227 58.91 54.905 68.558z" fill="#FFFCFC"/><use mask="url(#x)" stroke-width="2" fill="#D8D8D8" xlink:href="#j"/><path d="M.904 398L191 239S89.629 394.928 89.629 398C89.629 401.072 191 557 191 557L.904 398z" fill="#FFFCFC"/><use mask="url(#y)" stroke-width="2" fill="#FFFCFC" xlink:href="#k"/></g><g transform="translate(167 1138)"><use mask="url(#z)" stroke-width="2" fill="#D8D8D8" xlink:href="#l"/><use mask="url(#A)" stroke-width="2" fill="#D8D8D8" transform="rotate(-8 98.961 217.594)" xlink:href="#m"/><use mask="url(#B)" stroke-width="2" fill="#D8D8D8" transform="rotate(-6 77.285 72.253)" xlink:href="#n"/><ellipse fill="#C5C5C5" transform="rotate(-27 128.484 316.156)" cx="128.484" cy="316.156" rx="51.621" ry="25.5"/><path d="M416.5 296.422s2.472 12.084 2.472 20.825c0 8.742-2.472 15.253-2.472 15.253" stroke-linecap="square"/></g></g>
</svg>