<svg width="735" height="541" viewBox="0 0 735 541" xmlns="http://www.w3.org/2000/svg"><title>cloud</title><g stroke="#979797" fill="#FFF" fill-rule="evenodd"><path d="M427.548 99.38C457.538 111.1 518.832 105 598.5 105c115.704 0 117.562-2.647 117.562-2.647s29.272-6.33 12.203-41.78c-17.07-35.45-93.675-27.878-93.675-27.878s-18.086-38.324-80.688-31.21c-62.601 7.113-66.226 43.738-66.226 43.738s-80.59-24.137-80.59 22.277c0 8.296 6.897 26.58 20.462 31.88zM21.462 321.777c29.99 11.718 91.284 5.62 170.952 5.62 115.704 0 117.562-2.648 117.562-2.648s29.272-6.33 12.203-41.78c-17.07-35.45-93.675-27.878-93.675-27.878s-18.086-38.324-80.688-31.21c-62.601 7.113-66.226 43.738-66.226 43.738S1 243.482 1 289.896c0 8.297 6.897 26.58 20.462 31.88zM348.462 532.777c29.99 11.718 91.284 5.62 170.952 5.62 115.704 0 117.562-2.648 117.562-2.648s29.272-6.33 12.203-41.78c-17.07-35.45-93.675-27.878-93.675-27.878s-18.086-38.324-80.688-31.21c-62.601 7.113-66.226 43.738-66.226 43.738S328 454.482 328 500.896c0 8.297 6.897 26.58 20.462 31.88z"/></g></svg>