<?xml version="1.0" encoding="UTF-8" standalone="no"?>
<svg width="65px" height="51px" viewBox="0 0 65 51" version="1.1" xmlns="http://www.w3.org/2000/svg" xmlns:xlink="http://www.w3.org/1999/xlink">
    <!-- Generator: Sketch 39.1 (31720) - http://www.bohemiancoding.com/sketch -->
    <title>Rectangle 9</title>
    <desc>Created with Sketch.</desc>
    <defs>
        <path d="M28.6444836,58.073788 L48.2383328,71.4029369 L62.9501591,50 L72.1561546,71.4029369 L93,50 L79.3183517,101 C79.3183517,101 70.3307941,100.999999 60.8222409,100.999999 C51.3136877,100.999999 39.5814944,100.999999 39.5814944,100.999999 L28.6444836,58.073788 Z" id="path-1"></path>
        <mask id="mask-2" maskContentUnits="userSpaceOnUse" maskUnits="objectBoundingBox" x="0" y="0" width="64.3555164" height="51" fill="white">
            <use xlink:href="#path-1"></use>
        </mask>
    </defs>
    <g id="Page-1" stroke="none" stroke-width="1" fill="none" fill-rule="evenodd">
        <g id="утко-принцесса" transform="translate(-125.000000, 48.000000)" stroke="#979797" fill="#FEFEFE">
            <path d="M178.077439,429.238386 C212.05472,429.238386 283.800594,423.818203 328.540608,409.421537 C405.968064,384.506543 473.646645,288.600632 483.628236,278.558062 C493.609827,268.515491 454.731356,280.802858 444.696107,278.558062 C410.353769,270.875985 383.35321,234.924326 345.836885,208.813662 C310.733318,184.382232 278.591093,168.507872 264.510072,163.43503 C235.380204,152.940676 230.698655,150.443148 222.886262,131.120272 C193.333083,58.0245637 222.886262,5.11233019 153.667192,5.11233019 C97.9724866,5.11233019 107.701431,75.2779055 76.6947826,131.120271 C45.6881344,186.962636 7.38803203,250.399643 7.38803203,298.053328 C7.38803203,392.49402 85.2987833,429.238386 178.077439,429.238386 Z" id="туловко" transform="translate(246.320275, 217.175358) rotate(-1.000000) translate(-246.320275, -217.175358) "></path>
        </g>
        <g id="корона" transform="translate(-28.000000, -50.000000)" stroke="#979797" stroke-width="2" fill="#FFEA00">
            <use id="Rectangle-9" mask="url(#mask-2)" xlink:href="#path-1"></use>
        </g>
    </g>
</svg>