<svg width="65" height="51" viewBox="0 0 65 51" xmlns="http://www.w3.org/2000/svg" xmlns:xlink="http://www.w3.org/1999/xlink"><title>Rectangle 9</title><defs><path d="M28.644 58.074l19.594 13.329L62.95 50l9.206 21.403L93 50l-13.682 51H39.582L28.643 58.074z" id="a"/><mask id="b" x="0" y="0" width="64.356" height="51" fill="#fff"><use xlink:href="#a"/></mask></defs><g fill="none" fill-rule="evenodd" stroke="#979797"><path d="M56.789 478.397c33.972-.593 105.612-7.264 150.094-22.44 76.981-26.262 142.976-123.335 152.78-133.55 9.805-10.215-28.853 2.749-38.926.68-34.471-7.082-62.095-42.557-100.061-68.009-35.525-23.815-67.94-39.126-82.107-43.952-29.308-9.985-34.033-12.4-42.181-31.584-30.824-72.568-2.2-125.988-71.408-124.78-55.686.972-44.734 70.957-74.761 127.332-30.028 56.375-67.215 120.47-66.383 168.117 1.648 94.426 80.188 129.805 172.953 128.186z" fill="#FEFEFE"/><use mask="url(#b)" xlink:href="#a" transform="translate(-28 -50)" stroke-width="2" fill="#FFEA00"/></g></svg>