<?xml version="1.0" encoding="UTF-8" standalone="no"?>
<svg width="799px" height="601px" viewBox="0 0 799 601" version="1.1" xmlns="http://www.w3.org/2000/svg" xmlns:xlink="http://www.w3.org/1999/xlink">
    <!-- Generator: Sketch 39.1 (31720) - http://www.bohemiancoding.com/sketch -->
    <title>дракон</title>
    <desc>Created with Sketch.</desc>
    <defs>
        <path d="M14.1744677,54.5016747 C14.1744677,54.5016747 3.80940409,57.0974722 3.37701367,55.8448753 C3.11584742,55.0882998 13.0274454,49.8299484 13.0274454,49.8299484 L20.5449474,51.2456932 L14.8260801,47.9785271 C14.8260801,47.9785271 1.30407594,52.4242392 0.406614553,51.2456932 C-0.468077472,50.0970479 13.0274451,44.2783813 13.0274451,44.2783813 L18.8376366,44.5685806 L15.9665142,43.2787399 C15.9665142,43.2787399 2.85081804,47.6312503 3.01069103,46.6543999 C3.17056402,45.6775494 16.6806255,39.6923523 16.6806255,39.6923523 C16.6806255,39.6923523 24.5018641,45.3497696 37.4740988,45.3497696 C50.4463335,45.3497696 170,1.54159352e-10 170,1.54159352e-10 C170,1.54159352e-10 182.703598,55.9235159 174.84252,64.5183563 C166.981442,73.1131967 116.680518,57.2219276 116.680518,57.2219276 C116.680518,57.2219276 39.4684473,70.1005859 31.2280013,66.1196136 C29.0718882,65.077992 14.1744677,54.5016747 14.1744677,54.5016747 Z" id="path-1"></path>
        <mask id="mask-2" maskContentUnits="userSpaceOnUse" maskUnits="objectBoundingBox" x="0" y="0" width="177.043481" height="67.06792" fill="white">
            <use xlink:href="#path-1"></use>
        </mask>
        <path d="M13.209713,36.3902333 C13.209713,36.3902333 13.841516,34.0658167 15.5764113,33.3461868 C16.4549015,32.9817915 18.7294293,31.3488756 18.7294293,31.3488756 L28.0146933,32.7212021 L19.8306561,27.2400308 C19.8306561,27.2400308 15.1241217,28.7474868 13.9590835,28.4629734 C12.9872768,28.225649 11.4902873,27.1019308 9.90513518,27.2400308 C7.81656342,27.4219893 5.70254233,28.9276696 5.70254233,28.9276696 C5.70254233,28.9276696 6.1776742,25.0890995 9.90513506,24.0265549 C10.6715065,23.8080942 12.1523598,24.675512 13.2097129,24.689316 C14.8932683,24.7112952 19.8306561,23.2873321 19.8306561,23.2873321 L27.5401982,25.4753552 L20.7998848,20.6345096 C20.7998848,20.6345096 14.8777726,21.5086799 13.209713,21.2090469 C12.2135766,21.0301112 12.7831936,20.0555452 11.3032516,20.054859 C8.31775718,20.0534748 6.84437909,22.3197563 6.84437909,22.3197563 C6.84437909,22.3197563 6.94891914,19.2102048 9.90513506,18.2823251 C11.4153844,17.8082969 12.8228586,16.8510576 13.9590836,16.6960331 C16.0093793,16.4162943 22.1322603,16.6960331 22.1322603,16.6960331 L28.0146941,18.2823251 L20.7998848,13.7652593 C20.7998848,13.7652593 15.6847396,13.4937438 13.9590836,12.5885632 C13.4595241,12.3265228 10.7220874,13.1996147 10.7220874,13.1996147 L6.23039983,15.1066752 C6.23039983,15.1066752 6.51386311,12.7436511 8.90855744,11.1328942 C11.3032518,9.52213738 13.9590836,8.92091042 13.9590836,8.92091042 L22.7364245,8.92091042 C22.7364245,8.92091042 31.0618454,13.1514532 35.9760485,15.1066752 C47.1672895,19.5593526 57.2037592,28.9276701 57.2037592,28.9276701 L88.6526537,48.0725408 L74.108037,64.106793 C74.108037,64.106793 67.5945957,54.478954 55.203763,48.0725408 C51.0181529,45.9084613 39.0156203,41.5105716 35.9760485,41.4734846 C29.207678,41.3909011 28.3065831,38.6816903 19.8306561,39.0203678 C19.8306561,39.0203678 20.5199909,37.1461898 18.7294293,36.7599385 C16.9037101,36.3661031 15.7152205,37.8023727 15.5764113,38.0526211 C14.4904661,40.0103874 13.9590836,41.4734852 13.9590836,41.4734852 L13.209713,36.3902333 Z" id="path-3"></path>
        <mask id="mask-4" maskContentUnits="userSpaceOnUse" maskUnits="objectBoundingBox" x="0" y="0" width="82.9501114" height="55.1858826" fill="white">
            <use xlink:href="#path-3"></use>
        </mask>
        <polygon id="path-5" points="86.6075051 155.446699 147.607505 155.446699 147.607505 227.04801 86.6075051 229.446699"></polygon>
        <mask id="mask-6" maskContentUnits="userSpaceOnUse" maskUnits="objectBoundingBox" x="0" y="0" width="61" height="74" fill="white">
            <use xlink:href="#path-5"></use>
        </mask>
        <polygon id="path-7" points="67.0190552 536.878836 160.983312 540 132.472874 716.93241 102.032962 684.310535 88.3191632 670.879309"></polygon>
        <mask id="mask-8" maskContentUnits="userSpaceOnUse" maskUnits="objectBoundingBox" x="0" y="0" width="93.9642563" height="180.053574" fill="white">
            <use xlink:href="#path-7"></use>
        </mask>
        <polygon id="path-9" points="92.9857349 669.290038 82.0097809 553.959761 165.105834 560 165.105835 629.961485"></polygon>
        <mask id="mask-10" maskContentUnits="userSpaceOnUse" maskUnits="objectBoundingBox" x="0" y="0" width="83.0960541" height="115.330276" fill="white">
            <use xlink:href="#path-9"></use>
        </mask>
        <path d="M243,743.728838 C243,743.728838 277.906986,750.388241 294.652672,750.388241 C303.872106,750.388241 340.361702,746.991808 370.865829,739.147268 C372.019308,738.850635 370.160653,720.731891 368.316168,704.954716 C366.884797,692.711202 385.928207,689.766273 385.928207,689.766273 C385.928207,689.766273 374.845923,696.923085 375.073685,702.888828 C375.501086,714.083733 379.039865,735.274203 380.899765,734.543603 C387.269563,732.041438 394.304137,729.122159 400.555646,726.474195 C410.597557,722.220724 420.499527,726.474197 420.499527,726.474197 C420.499527,726.474197 407.596894,724.88505 397.354575,731.687493 C391.51821,735.563719 385.935033,739.629801 382.788682,742.843486 C382.31109,743.331298 404.331608,737.080026 420.499527,734.543603 C433.322578,732.531922 445.514359,750.388242 445.514359,750.388242 C445.514359,750.388242 439.1006,744.594847 431.550312,741.685772 C427.934166,740.292495 424.057317,739.560837 420.499532,740.444149 C402.870732,744.820953 380.285856,749.996759 380.899765,750.388241 C386.765935,754.129023 402.48977,758.098092 411.617004,760.938012 C421.450242,763.997603 428.221893,755.415543 428.221893,755.415543 L420.499527,767.145364 L380.899765,758.063264 C380.899765,758.063264 388.30283,770.313726 395.34506,782.339454 C402.225371,794.088679 421.548664,800.249888 420.499527,799.93576 C418.845355,799.440475 396.783666,799.568487 389.737701,787.792189 C379.360632,770.448438 367.239631,749.503687 365.46196,750.388241 C347.346145,759.402515 317.549275,771.762082 309.961044,772.27461 C290.758182,773.571621 243,776.017926 243,776.017926 L243,743.728838 Z" id="path-11"></path>
        <mask id="mask-12" maskContentUnits="userSpaceOnUse" maskUnits="objectBoundingBox" x="0" y="0" width="202.514359" height="110.180929" fill="white">
            <use xlink:href="#path-11"></use>
        </mask>
        <path d="M161.446484,725.73848 C161.446484,725.73848 193.985448,732.82351 209.047066,733.258373 C219.533316,733.561135 238.090088,727.951354 238.090088,727.951354 C238.090088,727.951354 249.610001,731.543208 257.931516,738.059155 C266.253031,744.575103 268.992783,752.148911 268.992783,752.148911 C268.992783,752.148911 238.680988,763.80734 218.097951,766.829003 C197.95038,769.786737 157.002038,766.829005 157.002038,766.829005 L161.446484,725.73848 Z" id="path-13"></path>
        <mask id="mask-14" maskContentUnits="userSpaceOnUse" maskUnits="objectBoundingBox" x="0" y="0" width="111.990746" height="42.4050719" fill="white">
            <use xlink:href="#path-13"></use>
        </mask>
        <path d="M121.641756,706.507791 C106.112545,688.181203 91.9446333,668.218022 91.9446333,668.218022 L166.340149,628.083292 C166.340149,628.083292 167.087484,656.449374 168.81234,668.218023 C170.825122,681.95119 185.455162,706.507791 185.455162,706.507791 C185.455162,706.507791 177.199722,712.873041 174.366066,716.445238 C167.357818,725.280057 155.929451,743.728838 155.929451,743.728838 C155.929451,743.728838 137.170967,724.83438 121.641756,706.507791 Z" id="path-15"></path>
        <mask id="mask-16" maskContentUnits="userSpaceOnUse" maskUnits="objectBoundingBox" x="0" y="0" width="93.5105286" height="115.645546" fill="white">
            <use xlink:href="#path-15"></use>
        </mask>
        <path d="M230.646468,509.216824 C232.00197,500.859482 228.132069,468.970435 228.132069,468.970435 L252,471 L251.999999,505.208087 L225.643235,521.553181 C225.643235,521.553181 229.290966,517.574165 230.646468,509.216824 Z" id="path-17"></path>
        <mask id="mask-18" maskContentUnits="userSpaceOnUse" maskUnits="objectBoundingBox" x="0" y="0" width="26.3567646" height="52.5827455" fill="white">
            <use xlink:href="#path-17"></use>
        </mask>
        <path d="M232.386463,511.260582 C236.59131,494.447301 236.166662,464.497014 232.386463,448.222622 C228.628399,432.043523 200,410 200,410 L304.570313,410 L304.570313,481.958847 C304.570313,481.958847 283.982248,497.005216 270.393333,503.847717 C256.603868,510.791203 222.435173,523.316811 222.435173,523.316811 C222.435173,523.316811 230.178285,520.090089 232.386463,511.260582 Z" id="path-19"></path>
        <mask id="mask-20" maskContentUnits="userSpaceOnUse" maskUnits="objectBoundingBox" x="0" y="0" width="104.570313" height="113.316811" fill="white">
            <use xlink:href="#path-19"></use>
        </mask>
        <path d="M186.177252,316.167813 C186.177252,316.167813 218.076315,302.719226 240.177797,290.511169 C254.598725,282.545571 259.851771,274.559437 261.761227,269.970833 C262.778199,267.526953 262.14567,264.802837 262.14567,264.802837 C262.14567,264.802837 266.800964,271.870895 267.000002,274.839882 C268.185389,292.521956 267,328 267,328 L154.422617,328 L186.177252,316.167813 Z" id="path-21"></path>
        <mask id="mask-22" maskContentUnits="userSpaceOnUse" maskUnits="objectBoundingBox" x="0" y="0" width="113.104223" height="63.1971633" fill="white">
            <use xlink:href="#path-21"></use>
        </mask>
        <path d="M113.527815,313.366336 C113.527815,313.366336 211.08622,316.785252 247.624739,305.438602 C257.013204,302.523114 261.258776,286.227182 263.141733,273.975396 C264.34299,266.159209 258.2675,262.526359 258.2675,262.526359 C258.2675,262.526359 268.068889,266.509939 272.277484,273.310525 C275.771927,278.957126 279.764388,284.796505 282.672758,287.25593 C287.366876,291.225448 291.454173,282.901902 297.363844,287.25593 C342.751005,320.695515 349.096662,323.601978 349.096662,323.601978 L400.901106,455.515632 L113.527815,412.352681 L113.527815,313.366336 Z" id="path-23"></path>
        <mask id="mask-24" maskContentUnits="userSpaceOnUse" maskUnits="objectBoundingBox" x="0" y="0" width="287.373291" height="192.989273" fill="white">
            <use xlink:href="#path-23"></use>
        </mask>
        <polygon id="path-25" points="263.435616 265.770826 262.762073 265.770826 306.442886 362.579259 307.16941 362.579259"></polygon>
        <mask id="mask-26" maskContentUnits="userSpaceOnUse" maskUnits="objectBoundingBox" x="0" y="0" width="44.4073372" height="96.8084335" fill="white">
            <use xlink:href="#path-25"></use>
        </mask>
        <path d="M266.810404,289.511417 C266.810404,281.407911 263,266 263,266 L264,266 C264,266 267.611125,281.681362 267.611125,289.511417 C267.611125,311.348029 264,355.868645 264,355.868645 L263,355.483421 C263,355.483421 266.810404,311.074577 266.810404,289.511417 Z" id="path-27"></path>
        <mask id="mask-28" maskContentUnits="userSpaceOnUse" maskUnits="objectBoundingBox" x="0" y="0" width="4.61112499" height="89.8686447" fill="white">
            <use xlink:href="#path-27"></use>
        </mask>
        <path d="M221.131147,561.892087 C227.390199,543.015615 242.785735,498.305513 243.386583,476.839909 C244.05723,452.880687 216.331196,401.696438 216.331196,401.696438 L265.642018,404.789395 L265.642018,561.89208 L221.131147,565.942609 C221.131147,565.942609 218.713056,569.184726 221.131147,561.892087 Z" id="path-29"></path>
        <mask id="mask-30" maskContentUnits="userSpaceOnUse" maskUnits="objectBoundingBox" x="0" y="0" width="49.3108214" height="164.96437" fill="white">
            <use xlink:href="#path-29"></use>
        </mask>
        <path d="M406.747912,409.939383 L428.000001,388.774594 C428.000001,388.774594 482.790022,461.274493 508.031871,497.621945 C534.078632,535.128446 583.611773,613.663235 583.611773,613.663235 C583.611773,613.663235 565.724856,606.619718 544.85924,600.374219 C537.064962,598.041234 523.748636,584.396399 499.907595,582.303204 C476.066554,580.21001 467.891663,581.933454 451.540869,592.181058 C426.35153,607.968081 405.479491,634.379178 405.479491,634.379178 L406.747912,409.939383 Z" id="path-31"></path>
        <mask id="mask-32" maskContentUnits="userSpaceOnUse" maskUnits="objectBoundingBox" x="0" y="0" width="178.132282" height="245.604584" fill="white">
            <use xlink:href="#path-31"></use>
        </mask>
        <path d="M293.664003,551.42369 C293.664003,551.42369 311.857655,515.53292 332.988483,511.971611 C343.813117,510.147268 387.492954,533.643145 387.492954,533.643145 L406.241386,630.324753 C406.241386,630.324753 395.467459,570.692947 357.927202,545.227771 C320.386946,519.762596 293.664003,551.42369 293.664003,551.42369 Z" id="path-33"></path>
        <mask id="mask-34" maskContentUnits="userSpaceOnUse" maskUnits="objectBoundingBox" x="0" y="0" width="112.577383" height="118.454136" fill="white">
            <use xlink:href="#path-33"></use>
        </mask>
        <path d="M152.590232,333.739192 C152.590232,333.739192 270.70388,359.559934 329.286087,363.869595 C362.507136,366.313536 428,354 428,354 L428,394 L145,394 L152.590232,333.739192 Z" id="path-35"></path>
        <mask id="mask-36" maskContentUnits="userSpaceOnUse" maskUnits="objectBoundingBox" x="0" y="0" width="283" height="60.2608084" fill="white">
            <use xlink:href="#path-35"></use>
        </mask>
        <path d="M103.085415,439.200587 L174.549412,439.200587 C174.549412,439.200587 278.344903,412.568655 301.925594,402.977708 C341.596614,386.842359 372.25619,336.97246 372.25619,336.97246 C372.25619,336.97246 391.904778,383.085283 394.281246,386.471503 C396.657714,389.857722 425.974223,396.877505 488.981868,431.64445 C551.989513,466.411394 626.559169,509.487856 626.559169,509.487856 C626.559169,509.487856 575.845088,511.975497 562.477443,509.487856 C549.109798,507.000216 517.792659,512.13576 500.765742,527.496142 C491.789107,535.594176 484.164257,545.906992 480.183253,561.855151 C477.371223,573.120327 472.734267,593.692562 470.891704,601.921832 C470.394933,604.140519 470.891689,607.326586 470.891689,607.326586 C470.891689,607.326586 452.002376,569.77617 439.645076,561.855149 C427.287776,553.934129 398.453853,531.937501 372.25619,542.464692 C346.058528,552.991883 333.299693,578.488526 333.299693,578.488526 C333.299693,578.488526 285.812992,531.082119 253.215053,522.775117 C221.284949,514.638301 147.759059,547.02228 147.759059,547.02228 L103.085415,439.200587 Z" id="path-37"></path>
        <mask id="mask-38" maskContentUnits="userSpaceOnUse" maskUnits="objectBoundingBox" x="0" y="0" width="523.473754" height="270.354126" fill="white">
            <use xlink:href="#path-37"></use>
        </mask>
        <path d="M356.799822,485.120203 C368.987093,440.597527 390.501497,337.601938 390.501497,337.601938 L391.97037,337.601938 C391.97037,337.601938 366.034933,458.184596 359.396429,482.63244 C344.980798,535.721379 328.381918,570.458811 328.381918,570.458811 L327.266224,570.458811 C327.266224,570.458811 347.760757,518.141818 356.799822,485.120203 Z" id="path-39"></path>
        <mask id="mask-40" maskContentUnits="userSpaceOnUse" maskUnits="objectBoundingBox" x="0" y="0" width="64.7041454" height="232.856873" fill="white">
            <use xlink:href="#path-39"></use>
        </mask>
        <path d="M445.583604,550.138251 C422.19251,507.092039 348.361535,372.0259 348.361535,372.0259 L349.025423,371.333915 C349.025423,371.333915 420.650281,501.009705 447.396752,550.138251 C465.358754,583.131277 483.150841,617.69863 483.150841,617.69863 L483.150841,620.07626 C483.150841,620.07626 467.122279,589.775492 445.583604,550.138251 Z" id="path-41"></path>
        <mask id="mask-42" maskContentUnits="userSpaceOnUse" maskUnits="objectBoundingBox" x="0" y="0" width="134.789307" height="248.742345" fill="white">
            <use xlink:href="#path-41"></use>
        </mask>
        <polygon id="path-43" points="7.251455 463.090681 7.251455 296.245726 86.4279153 296.245726 108.220449 557.639647 21.7896783 494.699278"></polygon>
        <mask id="mask-44" maskContentUnits="userSpaceOnUse" maskUnits="objectBoundingBox" x="0" y="0" width="100.968994" height="261.393921" fill="white">
            <use xlink:href="#path-43"></use>
        </mask>
        <polygon id="path-45" points="51.0927869 213.260997 78.4325123 216.351632 118.971563 207.056703 128.779859 284.497354 37.1445104 312.801386 24.0154872 322.673158"></polygon>
        <mask id="mask-46" maskContentUnits="userSpaceOnUse" maskUnits="objectBoundingBox" x="0" y="0" width="104.764371" height="115.616455" fill="white">
            <use xlink:href="#path-45"></use>
        </mask>
        <path d="M89,294 C89,287.353744 134.2976,283.766054 145.983312,294 C157.669023,304.233946 175.084689,585.496735 175.084689,585.496735 L71.87073,553.36615 C71.87073,553.36615 89,300.646256 89,294 Z" id="path-47"></path>
        <mask id="mask-48" maskContentUnits="userSpaceOnUse" maskUnits="objectBoundingBox" x="0" y="0" width="103.213959" height="297.896759" fill="white">
            <use xlink:href="#path-47"></use>
        </mask>
        <polygon id="path-49" points="108.345611 88.5320615 160.970786 90.1119643 160.970786 186.83948 152.44718 180.338769 93.5937031 176.474992 82.6693257 180.338771"></polygon>
        <mask id="mask-50" maskContentUnits="userSpaceOnUse" maskUnits="objectBoundingBox" x="0" y="0" width="78.3014605" height="98.3074188" fill="white">
            <use xlink:href="#path-49"></use>
        </mask>
        <polygon id="path-51" points="104 76 160.983312 76 164.31282 147.092018 156.933084 144.061589 111.030523 144.061589 104 147.092018"></polygon>
        <mask id="mask-52" maskContentUnits="userSpaceOnUse" maskUnits="objectBoundingBox" x="0" y="0" width="60.3128204" height="71.0920181" fill="white">
            <use xlink:href="#path-51"></use>
        </mask>
        <path d="M63.1415375,104.295164 C63.1415375,104.295164 59.8065065,94.2640395 59.6196297,88.2430396 C59.3341144,79.0440001 58.348069,59.308 58.348069,59.308 L74.0965451,63.1701624 C74.0965451,63.1701624 71.0712981,83.2044048 72.8909052,101.105787 C73.1831614,103.981017 79.5984546,105.910606 79.8489036,108.199983 C80.6588855,115.604102 79.1050885,126.263351 77.8428772,126.263353 C76.5806659,126.263355 72.8909052,111.273054 72.8909052,111.273054 L63.1415375,104.295164 Z" id="path-53"></path>
        <mask id="mask-54" maskContentUnits="userSpaceOnUse" maskUnits="objectBoundingBox" x="0" y="0" width="21.7247635" height="66.9553528" fill="white">
            <use xlink:href="#path-53"></use>
        </mask>
        <path d="M48.1617929,55.3065227 C47.9604823,42.7647033 35.7527412,14.487856 35.7527412,14.487856 L48.1617934,18.1902711 L60.192795,76.9523166 L44.5662653,89.0608752 C44.5662653,89.0608752 48.3861424,69.2836801 48.1617929,55.3065227 Z" id="path-55"></path>
        <mask id="mask-56" maskContentUnits="userSpaceOnUse" maskUnits="objectBoundingBox" x="0" y="0" width="24.4400537" height="74.5730193" fill="white">
            <use xlink:href="#path-55"></use>
        </mask>
        <path d="M83.6360383,64.9329882 L80.8195046,61.460934 L77.5246934,33 L121.262345,33.0000007 L158.284856,0.558266401 C158.284856,0.558266401 145.959351,26.2716262 139.951852,39.4133651 C133.944352,52.555104 160.983312,88.3375175 160.983312,88.3375175 L133.821763,88.3375175 C133.821763,88.3375175 134.224255,94.3893395 136.924699,99.9165809 C143.243838,112.85053 155.149406,132.355889 153.741681,132.458947 C151.338741,132.634863 113.991446,91.7777243 113.991446,91.7777243 L83.6360383,94 L83.6360383,64.9329882 Z" id="path-57"></path>
        <mask id="mask-58" maskContentUnits="userSpaceOnUse" maskUnits="objectBoundingBox" x="0" y="0" width="83.4586182" height="131.901247" fill="white">
            <use xlink:href="#path-57"></use>
        </mask>
        <path d="M15.7224283,520.146625 C14.8540153,518.595542 32.6230523,534.635309 32.6230523,534.635309 C32.6230523,534.635309 20.1747037,509.863606 22.0649034,511.83605 C22.8844253,512.691229 35.1595201,527.885709 35.1595201,527.885709 C35.1595201,527.885709 23.2630507,503.959925 23.5262652,502.59156 C23.8761503,500.772623 40.8568406,527.885709 40.8568406,527.885709 C40.8568406,527.885709 28.032042,495.628944 28.727778,493.705005 C29.1798296,492.454934 48.2848661,534.63531 48.2848661,534.63531 C48.2848661,534.63531 53.0300154,532.79443 70.4001535,542.54023 C78.9723278,547.349789 87.6176982,550.941329 94.3208177,550.941329 C117.026756,550.941329 194.382234,530.832266 194.382234,530.832266 C194.382234,530.832266 215.691787,535.00955 219.01053,557.560767 C222.329274,580.111983 227.310579,594.686179 206.0497,610.113944 C184.78882,625.541709 42.3882743,550.941329 42.3882743,550.941329 C42.3882743,550.941329 16.5329565,521.594319 15.7224283,520.146625 Z" id="path-59"></path>
        <mask id="mask-60" maskContentUnits="userSpaceOnUse" maskUnits="objectBoundingBox" x="0" y="0" width="206.316194" height="118.537105" fill="white">
            <use xlink:href="#path-59"></use>
        </mask>
        <path d="M29.8896398,21.1023015 L31.5729445,20.050456 C31.5729445,20.050456 38.7199527,16.9901258 43.0177039,18.7946794 C51.1705198,22.21791 61.4487452,27.9973468 64.6776333,32.8729022 C69.6086276,40.3186032 70.0786147,51.0117255 66.3267782,46.578695 C63.0132452,42.6635474 51.5218923,30.2346783 41.8604877,25.428254 C40.5825084,24.7924758 39.445891,22.2159979 38.3554895,21.7079544 C36.6631839,20.9194698 33.359279,21.0788629 31.4656585,21.9535509 C30.4521324,22.4217118 28.0480407,24.0891155 28.0480407,24.0891155 L29.8896398,21.1023015 L0.783918425,62.2241781" id="path-61"></path>
        <mask id="mask-62" maskContentUnits="userSpaceOnUse" maskUnits="objectBoundingBox" x="0" y="0" width="68.0228904" height="43.9990583" fill="white">
            <use xlink:href="#path-61"></use>
        </mask>
        <path d="M65.9343803,54.1113347 L66.5657511,62.7316935 C66.5657511,62.7316935 54.3021707,61.9507086 47.876433,62.9478624 C41.4506953,63.9450163 36.9592086,67.3260732 36.9592086,67.3260732 C36.9592086,67.3260732 38.3121249,61.0996721 45.8257238,57.8289098 C53.3393226,54.5581474 65.9343803,54.1113347 65.9343803,54.1113347" id="path-63"></path>
        <mask id="mask-64" maskContentUnits="userSpaceOnUse" maskUnits="objectBoundingBox" x="0" y="0" width="29.6065425" height="13.2147385" fill="white">
            <use xlink:href="#path-63"></use>
        </mask>
        <path d="M37.4774324,34.095818 C39.3392954,33.7682944 42.5780753,36.1383338 44.6472074,36.4007385 C49.2999749,36.9907967 53.7647915,35.3419076 57.3088606,35.6406686 C61.8823726,36.0262106 64.2940534,40.6506636 64.2940534,40.6506636 C64.2940534,40.6506636 64.7565522,40.4701302 64.9284801,40.6506636 C66.1253162,41.9074046 68.8356933,42.2962785 62.9655145,45.9713574 C57.2046728,49.5779848 48.6071378,44.592051 40.0693802,41.9755848 C38.6575952,41.5429316 37.6140134,38.4237073 36.1520349,38.2711838 C35.1434926,38.1659658 33.1354365,39.8466143 32.3068825,39.7756393 C29.0215281,39.4942117 25.2302364,42.7389058 25.2302364,42.7389058 C25.2302364,42.7389058 29.7498096,35.4551979 37.4774324,34.095818 Z" id="path-65"></path>
        <mask id="mask-66" maskContentUnits="userSpaceOnUse" maskUnits="objectBoundingBox" x="0" y="0" width="41.3741254" height="13.1716867" fill="white">
            <use xlink:href="#path-65"></use>
        </mask>
        <path d="M28.2304981,52.0860729 C28.2304981,52.0860729 28.5125726,44.766146 34.1270964,41.8826656 C37.4665443,40.1676079 45.483733,41.7375857 48.7849678,42.6397524 C57.6364798,45.0587079 63.389302,47.3381422 63.389302,47.3381422 L61.5320558,55.0542668 C61.5320558,55.0542668 42.7873764,50.8744999 39.1724901,49.5002228 C35.5576038,48.1259457 38.0523204,45.4274511 34.3719811,46.3747339 C30.6916417,47.3220167 28.2304981,52.0860729 28.2304981,52.0860729 Z" id="path-67"></path>
        <mask id="mask-68" maskContentUnits="userSpaceOnUse" maskUnits="objectBoundingBox" x="0" y="0" width="35.1588039" height="13.9385334" fill="white">
            <use xlink:href="#path-67"></use>
        </mask>
        <path d="M63.8316543,63.5462761 L63.8316543,56.4616018 L58.990603,53.3710325 L58.990603,47.2746486 L57.5806078,44.4454348 L57.5806078,37.020204 C57.5806078,37.020204 58.990603,35.8986197 58.990603,35.8986197 C58.990603,35.8986197 59.0520697,25.3903767 58.990603,24.8243623 C58.6991706,22.1407174 72.3682492,41.7309259 72.3682492,41.7309259 L140.150578,32.9582342 L140.150578,72.9169023 L74.6205006,62.2984507 L63.8316543,63.5462761 Z" id="path-69"></path>
        <mask id="mask-70" maskContentUnits="userSpaceOnUse" maskUnits="objectBoundingBox" x="0" y="0" width="82.5699703" height="48.3450737" fill="white">
            <use xlink:href="#path-69"></use>
        </mask>
        <path d="M129.901098,51.6871664 C128.901956,40.5806467 120.157249,30.0184986 120.157249,30.0184986 L147.804956,30.0184986 C147.804956,30.0184986 191.908701,-9.8965708 201.754777,2.4582428 C211.600852,14.8130564 196.174055,57.0719901 196.174057,65.8370202 C196.174059,74.6020502 124.167981,74.6020511 124.167981,74.6020511 C124.167981,74.6020511 130.900239,62.793686 129.901098,51.6871664 Z" id="path-71"></path>
        <mask id="mask-72" maskContentUnits="userSpaceOnUse" maskUnits="objectBoundingBox" x="0" y="0" width="84.8823529" height="74.516576" fill="white">
            <use xlink:href="#path-71"></use>
        </mask>
    </defs>
    <g id="Page-1" stroke="none" stroke-width="1" fill="none" fill-rule="evenodd">
        <g id="дракон" transform="translate(419.730185, 222.126482) rotate(-44.000000) translate(-419.730185, -222.126482) translate(39.230185, -177.873518)" stroke="#979797">
            <g id="голова" transform="translate(0.000000, 0.000000)">
                <g id="нога" transform="translate(8.000000, 476.000000)" stroke-width="2" fill="#912525">
                    <use id="Rectangle-32" mask="url(#mask-2)" xlink:href="#path-1"></use>
                </g>
                <g id="правая-рука" transform="translate(41.000000, 292.000000)" stroke-width="2" fill="#912525">
                    <use id="Rectangle-31" mask="url(#mask-4)" transform="translate(47.177598, 36.513852) rotate(-12.000000) translate(-47.177598, -36.513852) " xlink:href="#path-3"></use>
                </g>
                <g id="туловко-с-крылом" transform="translate(101.000000, 0.000000)">
                    <use id="Rectangle-8" mask="url(#mask-6)" stroke-width="2" fill="#B31212" transform="translate(117.107505, 192.446699) rotate(29.000000) translate(-117.107505, -192.446699) " xlink:href="#path-5"></use>
                    <use id="Rectangle-35" mask="url(#mask-8)" stroke-width="2" fill="#650808" xlink:href="#path-7"></use>
                    <use id="Rectangle-34" mask="url(#mask-10)" stroke-width="2" fill="#B31212" xlink:href="#path-9"></use>
                    <use id="Rectangle-38" mask="url(#mask-12)" stroke-width="2" fill="#B31212" xlink:href="#path-11"></use>
                    <use id="Rectangle-37" mask="url(#mask-14)" stroke-width="2" fill="#B31212" transform="translate(212.997410, 746.941016) rotate(28.000000) translate(-212.997410, -746.941016) " xlink:href="#path-13"></use>
                    <use id="Rectangle-36" mask="url(#mask-16)" stroke-width="2" fill="#B31212" xlink:href="#path-15"></use>
                    <use id="Rectangle-24" mask="url(#mask-18)" stroke-width="2" fill="#B31212" xlink:href="#path-17"></use>
                    <use id="Rectangle-23" mask="url(#mask-20)" stroke-width="2" fill="#EA2F2F" xlink:href="#path-19"></use>
                    <use id="Rectangle-20" mask="url(#mask-22)" stroke-width="2" fill="#B31212" xlink:href="#path-21"></use>
                    <use id="Rectangle-19" mask="url(#mask-24)" stroke-width="2" fill="#EA2F2F" xlink:href="#path-23"></use>
                    <use id="Rectangle-21" mask="url(#mask-26)" stroke-width="2" fill="#D8D8D8" xlink:href="#path-25"></use>
                    <use id="Rectangle-22" mask="url(#mask-28)" stroke-width="2" fill="#D8D8D8" xlink:href="#path-27"></use>
                    <use id="Rectangle-18" mask="url(#mask-30)" stroke-width="2" fill="#B31212" transform="translate(240.986607, 484.178623) rotate(-52.000000) translate(-240.986607, -484.178623) " xlink:href="#path-29"></use>
                    <use id="Rectangle-16" mask="url(#mask-32)" stroke-width="2" fill="#B31212" xlink:href="#path-31"></use>
                    <use id="Rectangle-17" mask="url(#mask-34)" stroke-width="2" fill="#B0ADAD" xlink:href="#path-33"></use>
                    <use id="Rectangle-15" mask="url(#mask-36)" stroke-width="2" fill="#B31212" xlink:href="#path-35"></use>
                    <use id="Rectangle-12" mask="url(#mask-38)" stroke-width="2" fill="#CF3939" transform="translate(364.822292, 472.149523) rotate(25.000000) translate(-364.822292, -472.149523) " xlink:href="#path-37"></use>
                    <use id="Rectangle-13" mask="url(#mask-40)" stroke-width="2" fill="#D8D8D8" transform="translate(359.618297, 454.030374) rotate(19.000000) translate(-359.618297, -454.030374) " xlink:href="#path-39"></use>
                    <use id="Rectangle-14" mask="url(#mask-42)" stroke-width="2" fill="#D8D8D8" transform="translate(415.756188, 495.705087) rotate(33.000000) translate(-415.756188, -495.705087) " xlink:href="#path-41"></use>
                    <use id="Rectangle-10" mask="url(#mask-44)" stroke-width="2" fill="#D63535" transform="translate(57.735952, 426.942686) rotate(3.000000) translate(-57.735952, -426.942686) " xlink:href="#path-43"></use>
                    <use id="Rectangle-9" mask="url(#mask-46)" stroke-width="2" fill="#B31212" transform="translate(76.397673, 264.864930) rotate(20.000000) translate(-76.397673, -264.864930) " xlink:href="#path-45"></use>
                    <use id="Rectangle-11" mask="url(#mask-48)" stroke-width="2" fill="#B31212" xlink:href="#path-47"></use>
                    <path d="M111.846156,178.840781 L92.7412614,218.77827" id="Line" stroke-linecap="square"></path>
                    <path d="M94.1799412,220.167587 L55.9207894,297.214569" id="Line" stroke-linecap="square"></path>
                    <use id="Rectangle-7" mask="url(#mask-50)" stroke-width="2" fill="#B31111" transform="translate(121.820056, 137.685771) rotate(-5.000000) translate(-121.820056, -137.685771) " xlink:href="#path-49"></use>
                    <path d="M112.527815,177.330722 L113.509282,112.131872" id="Line" stroke-linecap="square"></path>
                    <use id="Rectangle-6" mask="url(#mask-52)" stroke-width="2" fill="#B31111" xlink:href="#path-51"></use>
                    <use id="Rectangle-5" mask="url(#mask-54)" stroke-width="2" fill="#FF2F2F" transform="translate(69.210451, 92.785676) rotate(80.000000) translate(-69.210451, -92.785676) " xlink:href="#path-53"></use>
                    <path d="M43.181189,69.4091718 C46.1356102,62.4073469 50.0118078,43.179156 50.0118078,43.179156 L39.8281607,29.8162305 L56.8021006,37.1748683 L72.4189752,74.3973527 L76.8125509,94.5848005 L29.1896605,96.7361152 C29.1896605,96.7361152 38.8985833,79.5587246 43.181189,69.4091718 Z" id="Triangle" fill="#D53636" transform="translate(53.001106, 63.276173) rotate(-88.000000) translate(-53.001106, -63.276173) "></path>
                    <g id="Group" transform="translate(87.621853, 109.899689) rotate(4.000000) translate(-87.621853, -109.899689) translate(28.121853, 64.899689)">
                        <use id="Rectangle-4" mask="url(#mask-56)" stroke-width="2" fill="#6E0606" transform="translate(47.972768, 51.774366) rotate(48.000000) translate(-47.972768, -51.774366) " xlink:href="#path-55"></use>
                        <path d="M60.6795538,44.0255214 C63.6339751,37.2350107 71.3319243,9.26920471 71.3319243,9.26920471 L56.846196,-11.8881876 L78.5044402,3.88905617 L76.8469351,28.4505604 L65.9707762,67.3224295 L78.5044402,68.7893083 C78.5044402,68.7893083 64.1904104,98.1009857 56.846196,101.416239 C49.0831006,104.92058 48.1318822,82.438991 42.8546675,82.4389908 C41.2410913,82.4389907 40.7012011,64.5002264 40.7012011,64.5002264 C40.7012011,64.5002264 56.3969482,53.8687619 60.6795538,44.0255214 Z" id="Triangle" fill="#D53636" transform="translate(59.602821, 44.949476) scale(1, -1) rotate(-60.000000) translate(-59.602821, -44.949476) "></path>
                    </g>
                    <path d="M216.059374,84.6862401 C216.602385,78.934096 222.25249,70.2992848 222.25249,65.9689606 C222.25249,55.3553888 217.892168,34.086501 217.892168,34.086501 C217.892168,34.086501 224.808233,52.9750457 225.916622,63.399041 C226.418143,68.1156714 220.849469,84.6862401 220.849469,84.6862401 L225.916622,109.553592 C225.916622,109.553592 238.893113,121.370169 238.089127,121.370169 C236.643306,121.370169 215.606267,133.288527 210.55857,130.081916 C210.534094,130.066367 190.544118,123.725139 171.327042,118.116011 C165.007905,116.271566 157.158833,119.170046 151.8795,116.237838 C141.000376,110.195435 135.558225,97.7235535 136.25989,97.022765 C136.961554,96.3219765 139.914237,106.656476 153.562171,111.910186 C158.543724,113.827812 167.383664,111.066155 172.506356,111.910186 C184.672589,113.914733 196.087454,115.09505 194.634472,113.386817 C191.069077,109.195075 182.06695,98.7963236 178.725777,94.1771916 C169.095906,80.8640089 157.009698,59.136649 161.891536,63.399041 C166.773374,67.6614331 168.938647,72.3308844 178.725777,84.6862401 C185.539348,93.2877495 194.459046,102.886855 194.201427,102.437995 C190.240967,95.5375248 189.891604,82.7195717 186.118465,74.0112217 C181.129557,62.4968964 173.1566,55.5041496 172.506355,52.6393994 C172.324213,51.8369485 182.179082,59.746683 189.6441,72.2054814 C195.040758,81.2122755 197.772381,94.5631166 201.317921,99.3329915 C203.77212,102.634668 205.334313,105.545266 205.232745,105.160735 C203.366891,98.0966831 200.829172,94.7066864 199.092456,88.4780873 C197.074507,81.2408644 194.225253,76.5441099 194.634471,76.0611447 C195.143432,75.4604619 199.366848,79.9988707 202.756356,86.3624714 C208.05948,96.3187698 214.475087,109.743261 216.059375,109.553595 C217.698666,109.357345 217.892168,109.553592 217.892168,109.553592 C217.892168,109.553592 214.778844,98.2509866 216.059374,84.6862401 Z" id="Triangle-3" fill="#D63535" transform="translate(187.162329, 82.358101) scale(-1, 1) rotate(-79.000000) translate(-187.162329, -82.358101) "></path>
                    <use id="Rectangle-3" mask="url(#mask-58)" stroke-width="2" fill="#D63535" xlink:href="#path-57"></use>
                    <polygon id="Triangle-2" fill="#000000" transform="translate(93.648296, 57.947819) scale(-1, 1) rotate(-74.000000) translate(-93.648296, -57.947819) " points="93.648296 43.6099469 97.6288718 72.2856918 89.66772 68.9429658"></polygon>
                </g>
                <use id="Rectangle-33" mask="url(#mask-60)" stroke-width="2" fill="#B31212" transform="translate(118.849701, 552.946311) rotate(-27.000000) translate(-118.849701, -552.946311) " xlink:href="#path-59"></use>
                <g id="левая-рука" transform="translate(28.000000, 321.000000)" stroke-width="2">
                    <use id="Rectangle-27" mask="url(#mask-62)" fill="#C84A4A" xlink:href="#path-61"></use>
                    <use id="Rectangle-30" mask="url(#mask-64)" fill="#C84A4A" xlink:href="#path-63"></use>
                    <use id="Rectangle-28" mask="url(#mask-66)" fill="#C84A4A" xlink:href="#path-65"></use>
                    <use id="Rectangle-29" mask="url(#mask-68)" fill="#C84A4A" xlink:href="#path-67"></use>
                    <use id="Rectangle-26" mask="url(#mask-70)" fill="#B52727" xlink:href="#path-69"></use>
                    <use id="Rectangle-25" mask="url(#mask-72)" fill="#9C0B0B" xlink:href="#path-71"></use>
                </g>
            </g>
        </g>
    </g>
</svg>