<svg width="542" height="422" viewBox="0 0 542 422" xmlns="http://www.w3.org/2000/svg"><title>fire</title><g fill="none" fill-rule="evenodd"><path d="M48.84 337.513c30.458 18.984 62.634 0 62.634 0s26.92 74.15 72.692 82.247c45.77 8.095 100.659-19.324 100.659-51.586 0-8.872 34.294 35.533 56.324 27.223 22.029-8.31 28.786-32.67 12.524-57.884C332.21 304.233 540.641 1 540.641 1S231.393 108.705 210.109 97.96c-15.603-7.876-66.845-25.73-89.362-12.087-30.928 18.74-32.49 72.64-39.026 72.64C27.044 158.513 1 193.387 1 250.549c0 57.161 17.383 67.98 47.84 86.964z" stroke="#EC0000" fill-opacity=".7" fill="#F8C81C" opacity=".8"/><path d="M464.5 63.5l-177 144" stroke="#FF7D12" stroke-linecap="square" opacity=".7"/><path d="M398.5 150.5l-156 154" stroke="#F00" stroke-linecap="square" opacity=".7"/></g></svg>