<svg width="6221" height="3072" viewBox="0 0 6221 3072" xmlns="http://www.w3.org/2000/svg" xmlns:xlink="http://www.w3.org/1999/xlink"><title>fon</title><defs><path d="M3167.388 1452.31c185.951-89.406 84.934-103.628 489.64-103.628 404.708 0 543.85-12.998 809.972 126.272C4733.122 1614.224 4752.857 1816 4752.857 1816c-41.792-8.373-717.934.133-1040.903 0-400.387-.164-781.7 0-781.7 0-43.893 0 51.182-274.282 237.134-363.69z" id="a"/><mask id="B" x="0" y="0" width="1833.199" height="467.641" fill="#fff"><use xlink:href="#a"/></mask><path d="M0 517.441l11.878-32.331 16.505 32.331V396.963l39.322-53.112 41.892 53.112V418.4h41.518V309.436l22.145-66.062 24.943 66.062v-115.4l71.973-155.86 72.648 155.86v115.4l23.48-66.062 23.308 66.062V418.4h47.694v-21.437l33.383-53.112 45.61 53.112v120.478l14.313-32.331L546 517.44v99.372H0v-99.372z" id="b"/><mask id="C" x="0" y="0" width="546" height="578.637" fill="#fff"><use xlink:href="#b"/></mask><path id="c" d="M333.36 616.735H546v62.391H333.36z"/><mask id="D" x="0" y="0" width="212.64" height="62.391" fill="#fff"><use xlink:href="#c"/></mask><path id="d" d="M407.527 637.321h32.35v17.353h-32.35z"/><mask id="E" x="0" y="0" width="32.35" height="17.353" fill="#fff"><use xlink:href="#d"/></mask><path id="e" d="M474.988 563.178h41.818v16.17h-41.818z"/><mask id="F" x="0" y="0" width="41.818" height="16.17" fill="#fff"><use xlink:href="#e"/></mask><path id="f" d="M420.152 589.996h54.837v16.17h-54.837z"/><mask id="G" x="0" y="0" width="54.837" height="16.17" fill="#fff"><use xlink:href="#f"/></mask><path id="g" d="M360.186 491.4h26.038v13.409h-26.038z"/><mask id="H" x="0" y="0" width="26.038" height="13.409" fill="#fff"><use xlink:href="#g"/></mask><path id="h" d="M333.36 504.809h21.698v11.437H333.36z"/><mask id="I" x="0" y="0" width="21.698" height="11.437" fill="#fff"><use xlink:href="#h"/></mask><path id="i" d="M368.471 446.835h39.056v14.592h-39.056z"/><mask id="J" x="0" y="0" width="39.056" height="14.592" fill="#fff"><use xlink:href="#i"/></mask><path id="j" d="M150.308 446.835h40.634v14.592h-40.634z"/><mask id="K" x="0" y="0" width="40.634" height="14.592" fill="#fff"><use xlink:href="#j"/></mask><path id="k" d="M190.942 343.901h31.166v11.437h-31.166z"/><mask id="L" x="0" y="0" width="31.166" height="11.437" fill="#fff"><use xlink:href="#k"/></mask><path id="l" d="M0 647.97h35.506v13.015H0z"/><mask id="M" x="0" y="0" width="35.506" height="13.015" fill="#fff"><use xlink:href="#l"/></mask><path id="m" d="M158.987 536.36h31.955v12.62h-31.955z"/><mask id="N" x="0" y="0" width="31.955" height="12.62" fill="#fff"><use xlink:href="#m"/></mask><path id="n" d="M137.684 552.924h33.139v10.254h-33.139z"/><mask id="O" x="0" y="0" width="33.139" height="10.254" fill="#fff"><use xlink:href="#n"/></mask><path id="o" d="M0 616.735h212.64v62.391H0z"/><mask id="P" x="0" y="0" width="212.64" height="62.391" fill="#fff"><use xlink:href="#o"/></mask><path id="p" d="M25.249 579.347h54.837v16.17H25.249z"/><mask id="Q" x="0" y="0" width="54.837" height="16.17" fill="#fff"><use xlink:href="#p"/></mask><path id="q" d="M0 647.97h25.249v13.015H0z"/><mask id="R" x="0" y="0" width="25.249" height="13.015" fill="#fff"><use xlink:href="#q"/></mask><path id="r" d="M185.025 666.506h175.162V702H185.025z"/><mask id="S" x="0" y="0" width="175.162" height="35.494" fill="#fff"><use xlink:href="#r"/></mask><path id="s" d="M0 84.398h50.197v12.226H0z"/><mask id="T" x="0" y="0" width="50.197" height="12.226" fill="#fff"><use xlink:href="#s"/></mask><path id="t" d="M0 84.398h50.197v12.226H0z"/><mask id="U" x="0" y="0" width="50.197" height="12.226" fill="#fff"><use xlink:href="#t"/></mask><path id="u" d="M0 100.244h59.54v14.521H0z"/><mask id="V" x="0" y="0" width="59.54" height="14.521" fill="#fff"><use xlink:href="#u"/></mask><path d="M5.129 14.751s16.348-2.104 21.647 0c5.299 2.104-8.332 5.038-2.605 7.562 5.728 2.524 22.228 1.863 25.537 2.545 3.309.682 10.786 1.704 0 2.72-10.786 1.016-21.395 2.123-28.87 0-7.473-2.123 2.88-7.025 0-8.2-2.878-1.176-15.71 1.787-15.71 1.787V14.75z" id="v"/><mask id="W" x="0" y="0" width="50.197" height="14.974" fill="#fff"><use xlink:href="#v"/></mask><path d="M3.2 9.182s10.204-1.31 13.511 0c3.307 1.31-5.2 3.136-1.625 4.707 3.574 1.571 13.872 1.16 15.937 1.584 2.066.424 6.732 1.06 0 1.693-6.731.633-13.353 1.321-18.017 0-4.665-1.322 1.796-4.373 0-5.104-1.797-.732-9.805 1.112-9.805 1.112V9.182z" id="w"/><mask id="X" x="0" y="0" width="31.328" height="9.321" fill="#fff"><use xlink:href="#w"/></mask><path id="x" d="M104.545 647.97h45.763v13.015h-45.763z"/><mask id="Y" x="0" y="0" width="45.763" height="13.015" fill="#fff"><use xlink:href="#x"/></mask><path id="y" d="M310.873 371.113h44.185v10.648h-44.185z"/><mask id="Z" x="0" y="0" width="44.185" height="10.648" fill="#fff"><use xlink:href="#y"/></mask><path d="M4743.66 2323.182c33.415-79.749-1154.715-19.502-1189.66-210.584-34.946-191.083 1042.267-551.378 1042.267-551.378 4.184-1.413 11.145-2.914 15.532-3.35l104.99-10.46c4.394-.437 4.604.473.475 2.043 0 0-905.987 339.565-863.264 529.015 42.723 189.451 1045.582 124.89 1035.76 199.894-40.432 308.759-689.329 788.955-689.329 788.955-3.535 2.647-9.979 4.688-14.403 4.558l-445.03-13.006c-4.42-.129-4.84-1.915-.95-3.993 0 0 895.58-473.862 1003.612-731.694z" id="z"/><mask id="aa" x="0" y="0" width="1336.664" height="1524.58" fill="#fff"><use xlink:href="#z"/></mask><path d="M3483.502 1623.584c0-106.006 55.218-201.47 55.218-201.47 2.108-3.878 6.422-9.472 9.64-12.501l11.55-10.868c3.216-3.027 4.304-2.232 2.472 1.78 0 0-68.293 142.147-41.301 203.736 26.992 61.589 267.465 65.159 267.465 65.159 4.409.108 5.86 3.091 3.257 6.643l-35.81 48.848c-2.61 3.56-8.31 6.39-12.722 6.277 0 0-259.77-1.598-259.77-107.604z" id="A"/><mask id="ab" x="0" y="0" width="309.594" height="334.284" fill="#fff"><use xlink:href="#A"/></mask></defs><g transform="translate(1)" fill="none" fill-rule="evenodd"><g stroke="#979797"><path d="M4985.225 1816s251.993-115.092 136.743-424.257C5006.718 1082.577 4156.205 1 3695.323 1 3234.442 1 2517 863.006 2517 1316.984 2517 1770.962 4985.225 1816 4985.225 1816z" fill="#125C05"/><path d="M3265.985 179.774s117.267-17.116 198.45 6.042c81.184 23.158 158.175 133.546 158.175 133.546s113.41-122.157 224.118-122.157c108.08 0 268.385 81.476 268.385 81.476s-34.39-114.314-39.49-118.636C4021.138 113.861 3831.937-5.76 3686.082 1c-145.854 6.76-239.788 59.467-295.127 94.092-55.338 34.625-124.97 84.682-124.97 84.682z" fill="#D8D8D8"/></g><g stroke="#979797"><path d="M3002.656 1789.044s107.866-117.044 241.652-332.216C3378.094 1241.656 2490.205 177 2029.323 177 1568.442 177 851 1039.006 851 1492.984c0 453.978 2151.656 296.06 2151.656 296.06z" fill="#125C05"/><path d="M1568.776 661.572s209.689-160.886 300.785-160.886c89.234 0 237.528 226.319 237.528 226.319s131.147-141.546 243.806-226.32c70.28-52.883 166.212-56.118 166.212-73.685 0-80.136-319.848-268.932-492.437-268.932S1555.992 319.942 1533.802 427c-10.478 50.55 34.974 234.572 34.974 234.572z" fill="#D8D8D8"/></g><path d="M5284.105 1814.486h671.313c203.634 0-372.551-592.34-671.313-592.34-298.763 0-796.271 433.24-746.18 521.604 50.091 88.364 222.061 70.736 746.18 70.736zM2543.69 1814.86h671.315c203.634 0-372.552-418.86-671.314-418.86-298.762 0-796.27 259.76-746.18 348.124 50.092 88.364 222.062 70.736 746.18 70.736z" stroke="#979797" fill="#187806"/><path d="M1340.69 1814.86h671.315c203.634 0-697.216-741.252-995.979-741.252-298.762 0-709.853 568.053-659.761 656.417 50.091 88.364 460.308 84.835 984.426 84.835z" stroke="#979797" fill="#20980B"/><use stroke="#979797" mask="url(#B)" stroke-width="2" fill="#21980B" xlink:href="#a"/><g transform="translate(3417 683)" stroke="#979797"><use mask="url(#C)" stroke-width="2" fill="#FF89CF" xlink:href="#b"/><use mask="url(#D)" stroke-width="2" fill="#AB0563" xlink:href="#c"/><use mask="url(#E)" stroke-width="2" fill="#8D8D8D" xlink:href="#d"/><use mask="url(#F)" stroke-width="2" fill="#BBB" xlink:href="#e"/><use mask="url(#G)" stroke-width="2" fill="#BBB" xlink:href="#f"/><use mask="url(#H)" stroke-width="2" fill="#757575" xlink:href="#g"/><use mask="url(#I)" stroke-width="2" fill="#8D8D8D" xlink:href="#h"/><use mask="url(#J)" stroke-width="2" fill="#BBB" xlink:href="#i"/><use mask="url(#K)" stroke-width="2" fill="#BBB" xlink:href="#j"/><use mask="url(#L)" stroke-width="2" fill="#BBB" xlink:href="#k"/><use mask="url(#M)" stroke-width="2" fill="#E6E6E6" xlink:href="#l"/><use mask="url(#N)" stroke-width="2" fill="#BBB" xlink:href="#m"/><use mask="url(#O)" stroke-width="2" fill="#BBB" xlink:href="#n"/><use mask="url(#P)" stroke-width="2" fill="#AB0563" xlink:href="#o"/><use mask="url(#Q)" stroke-width="2" fill="#BBB" xlink:href="#p"/><use mask="url(#R)" stroke-width="2" fill="#8D8D8D" xlink:href="#q"/><path d="M186.119 662.294c15.045 33.281 46.682 28.695 86.092 28.695 37.05 0 71.089-.53 87.311-28.695 7.15-12.414 10.564-32.618 7.904-56.591-4.9-44.165-95.215-138.36-95.215-138.36s-90.335 93.538-94.261 138.36c-1.743 19.896 2.835 44.793 8.169 56.591z" fill="#414141"/><use mask="url(#S)" stroke-width="2" fill="#FF27A1" xlink:href="#r"/><g transform="translate(41.423 414.101)"><path d="M24.854 10.254c9.468 0 18.936 74.201 18.936 74.201H5.918s9.468-74.201 18.936-74.201z" fill="#414141"/><use mask="url(#T)" stroke-width="2" fill="#AB0663" xlink:href="#s"/><ellipse fill="#FFF" cx="3.353" cy="44.368" rx="2.959" ry="2.958"/><ellipse fill="#FFF" cx="8.876" cy="21.494" rx="2.959" ry="2.958"/><ellipse fill="#FFF" cx="25.051" cy="2.958" rx="2.959" ry="2.958"/><ellipse fill="#FFF" cx="46.749" cy="44.368" rx="2.959" ry="2.958"/><ellipse fill="#FFF" cx="40.043" cy="21.494" rx="2.959" ry="2.958"/></g><g transform="translate(446.978 414.101)"><path d="M24.854 10.254c9.468 0 18.936 74.201 18.936 74.201H5.918s9.468-74.201 18.936-74.201z" fill="#414141"/><use mask="url(#U)" stroke-width="2" fill="#AB0663" xlink:href="#t"/><ellipse fill="#FFF" cx="3.353" cy="44.368" rx="2.959" ry="2.958"/><ellipse fill="#FFF" cx="8.876" cy="21.494" rx="2.959" ry="2.958"/><ellipse fill="#FFF" cx="25.051" cy="2.958" rx="2.959" ry="2.958"/><ellipse fill="#FFF" cx="46.749" cy="44.368" rx="2.959" ry="2.958"/><ellipse fill="#FFF" cx="40.043" cy="21.494" rx="2.959" ry="2.958"/></g><g transform="translate(240.65 212.572)"><path d="M29.48 12.18c11.23 0 22.461 88.132 22.461 88.132H7.02S18.25 12.179 29.48 12.179z" fill="#414141"/><use mask="url(#V)" stroke-width="2" fill="#AB0663" xlink:href="#u"/><ellipse fill="#FFF" cx="3.977" cy="52.698" rx="3.51" ry="3.513"/><ellipse fill="#FFF" cx="10.529" cy="25.529" rx="3.51" ry="3.513"/><ellipse fill="#FFF" cx="29.714" cy="3.513" rx="3.51" ry="3.513"/><ellipse fill="#FFF" cx="55.451" cy="52.698" rx="3.51" ry="3.513"/><ellipse fill="#FFF" cx="47.496" cy="25.529" rx="3.51" ry="3.513"/></g><path d="M198.24 194.628h144.39M267.674 71.58l-37.478 87.553" stroke-linecap="square"/><g transform="translate(265.11)"><path d="M5.326 38.452V12.423" stroke-linecap="square"/><ellipse fill="#D8D8D8" cx="5.918" cy="6.113" rx="5.918" ry="6.113"/><use mask="url(#W)" stroke-width="2" fill="#FF27A1" xlink:href="#v"/></g><g transform="translate(362.948 223.615)"><path d="M3.324 23.935V7.733" stroke-linecap="square"/><ellipse fill="#D8D8D8" cx="3.693" cy="3.805" rx="3.693" ry="3.805"/><use mask="url(#X)" stroke-width="2" fill="#FF27A1" xlink:href="#w"/></g><use mask="url(#Y)" stroke-width="2" fill="#8D8D8D" xlink:href="#x"/><use mask="url(#Z)" stroke-width="2" fill="#BBB" xlink:href="#y"/><path fill="#AB0663" d="M68.842 334.436l40.042 62.312H28.8zM270.436 37.86l72.392 157.36H198.043zM476.764 335.225l40.042 62.312h-80.085z"/></g><path d="M20.866 3052.667h6178.9c95.666 0-189.37-1122.186-189.37-1236.667 0-134.639-448.986-302.053-1046.16-289.91-507.59 10.32-1232.298 289.91-1953.71 289.91-933.831 0-2601.446-372.114-2657.34-122.503-22.574 100.815-450.654 1359.17-332.32 1359.17z" stroke="#21980B" fill="#20A407"/><use stroke="#979797" mask="url(#aa)" stroke-width="2" fill="#FFDB05" xlink:href="#z"/><use stroke="#979797" mask="url(#ab)" stroke-width="2" fill="#E3EA10" transform="rotate(42 3638.299 1564.05)" xlink:href="#A"/></g></svg>