<?xml version="1.0" encoding="UTF-8" standalone="no"?>
<svg width="952px" height="962px" viewBox="0 0 952 962" version="1.1" xmlns="http://www.w3.org/2000/svg" xmlns:xlink="http://www.w3.org/1999/xlink">
    <!-- Generator: Sketch 39.1 (31720) - http://www.bohemiancoding.com/sketch -->
    <title>рыцарь</title>
    <desc>Created with Sketch.</desc>
    <defs>
        <path d="M489,310.528363 C489,310.528363 501.908935,315.326039 513.932062,315.326039 C525.95519,315.326039 535.657471,312.438734 535.657471,312.438734 L534.460609,339.892381 L489,339.139375 L489,310.528363 Z" id="path-1"></path>
        <mask id="mask-2" maskContentUnits="userSpaceOnUse" maskUnits="objectBoundingBox" x="0" y="0" width="46.6574707" height="29.3640181" fill="white">
            <use xlink:href="#path-1"></use>
        </mask>
        <path d="M93.6012782,49.7401869 L135.778921,49.7401869 L135.778921,288.476007 C135.778921,288.476007 113.714128,293.755372 99.2962412,288.476011 C84.8783542,283.19665 93.6012782,49.7401869 93.6012782,49.7401869 Z" id="path-3"></path>
        <mask id="mask-4" maskContentUnits="userSpaceOnUse" maskUnits="objectBoundingBox" x="0" y="0" width="44.7925294" height="241.082205" fill="white">
            <use xlink:href="#path-3"></use>
        </mask>
        <rect id="path-5" x="139.184573" y="213.418353" width="156.290508" height="30.9071059"></rect>
        <mask id="mask-6" maskContentUnits="userSpaceOnUse" maskUnits="objectBoundingBox" x="0" y="0" width="156.290508" height="30.9071059" fill="white">
            <use xlink:href="#path-5"></use>
        </mask>
        <path d="M265.952244,132.09667 C270.328311,128.982037 335.706359,121.560032 354.625371,132.09667 C373.544383,142.633308 365.574782,175.54013 345.697112,192.500656 C325.819442,209.461181 270.499625,202.39879 265.952244,197.475442 C261.404863,192.552095 261.576178,135.211302 265.952244,132.09667 Z" id="path-7"></path>
        <mask id="mask-8" maskContentUnits="userSpaceOnUse" maskUnits="objectBoundingBox" x="0" y="0" width="102.776126" height="76.5708711" fill="white">
            <use xlink:href="#path-7"></use>
        </mask>
        <path d="M44.836319,2.10044141 C51.8777537,3.96022392 59.0123024,6.23149366 65.9557966,8.88776893 C92.5324844,19.0548399 116.310173,34.8623448 121.354149,54.8253267 C121.566594,55.6661406 121.707825,57.3219137 121.707829,57.321915 C121.707832,57.3219163 47.4316711,97.5653233 47.4316711,97.5653233 L0,38.0782017 C0,38.0782017 10.8433228,-6.87778287 44.836319,2.10044141 Z" id="path-9"></path>
        <mask id="mask-10" maskContentUnits="userSpaceOnUse" maskUnits="objectBoundingBox" x="0" y="0" width="121.707829" height="96.6505763" fill="white">
            <use xlink:href="#path-9"></use>
        </mask>
        <rect id="path-11" x="330" y="132" width="25" height="1541"></rect>
        <mask id="mask-12" maskContentUnits="userSpaceOnUse" maskUnits="objectBoundingBox" x="0" y="0" width="25" height="1541" fill="white">
            <use xlink:href="#path-11"></use>
        </mask>
        <rect id="path-13" x="315" y="208" width="56" height="39"></rect>
        <mask id="mask-14" maskContentUnits="userSpaceOnUse" maskUnits="objectBoundingBox" x="0" y="0" width="56" height="39" fill="white">
            <use xlink:href="#path-13"></use>
        </mask>
        <path d="M53.4801213,397.55592 C58.7728179,379.612056 189.401902,239.445222 189.401909,239.445222 C189.401916,239.445222 187.352249,306.821506 223.796043,314.723768 C276.513162,326.154643 446.187729,314.723771 446.187729,314.723771 C446.187729,314.723771 489.840075,305.650946 509.254868,285.15775 C528.669661,264.664554 536.632248,239.445222 536.632248,239.445222 C536.632248,239.445222 542.043137,259.755682 542.043137,278.083366 C542.043137,296.41105 536.632248,314.723771 536.632248,314.723771 C536.632248,314.723771 546.665726,304.931937 557.135147,281.938832 C562.258836,270.686108 630.457596,368.102296 630.457596,397.555925 C630.457596,427.009553 560.832012,515.091557 557.135147,501.756959 C549.894974,475.641638 536.632248,468.484387 536.632248,468.484387 C536.632248,468.484387 542.043137,487.427314 542.043137,510.215568 C542.043137,533.003823 536.632248,555.813752 536.632248,555.813752 C536.632248,555.813752 526.000709,530.625367 509.254868,513.106843 C492.509027,495.588319 446.187729,486.212098 446.187729,486.212098 C446.187729,486.212098 253.454941,462.057421 223.79604,486.212093 C194.137138,510.366765 189.401909,555.813748 189.401909,555.813748 C189.401909,555.813748 48.1874247,415.499784 53.4801213,397.55592 Z" id="path-15"></path>
        <mask id="mask-16" maskContentUnits="userSpaceOnUse" maskUnits="objectBoundingBox" x="0" y="0" width="577.12262" height="316.36853" fill="white">
            <use xlink:href="#path-15"></use>
        </mask>
        <rect id="path-17" x="321" y="316" width="43" height="164" rx="8"></rect>
        <mask id="mask-18" maskContentUnits="userSpaceOnUse" maskUnits="objectBoundingBox" x="0" y="0" width="43" height="164" fill="white">
            <use xlink:href="#path-17"></use>
        </mask>
        <path d="M333.836319,689.185694 C340.877754,691.045477 348.012302,693.316747 354.955797,695.973022 C381.532484,706.140093 405.310173,721.947598 410.354149,741.91058 C410.566594,742.751394 410.707825,744.407167 410.707829,744.407168 C410.707832,744.407169 336.431671,784.650576 336.431671,784.650576 L289,725.163455 C289,725.163455 299.843323,680.20747 333.836319,689.185694 Z" id="path-19"></path>
        <mask id="mask-20" maskContentUnits="userSpaceOnUse" maskUnits="objectBoundingBox" x="0" y="0" width="121.707829" height="96.6505763" fill="white">
            <use xlink:href="#path-19"></use>
        </mask>
        <path d="M322.723495,1107.44983 C330.081271,1076.5216 355.142025,1009.18683 355.142025,1009.18683 C355.142025,1009.18683 375.066389,1031.16591 394.490997,1040.95702 C413.915605,1050.74814 446.190941,1058.32204 446.190941,1058.32204 C446.190941,1058.32204 477.768324,1065.03984 511.042068,1064.16569 C544.315813,1063.29155 553.29162,1063.63942 579.170624,1058.32204 C605.049627,1053.00466 613.525299,1050.80905 626.356445,1044.12184 C639.187592,1037.43463 667.718262,1009.18683 667.718262,1009.18683 C667.718262,1009.18683 680.410492,1033.89297 690.079544,1064.16569 C699.748596,1094.43842 701.413254,1098.36628 701.413254,1114.23186 C701.413254,1130.09745 698.341263,1145.45729 698.341263,1145.45729 L322.723495,1145.45729 C322.723495,1145.45729 319.275094,1121.94509 322.723495,1107.44983 Z" id="path-21"></path>
        <mask id="mask-22" maskContentUnits="userSpaceOnUse" maskUnits="objectBoundingBox" x="0" y="0" width="380.222382" height="136.270462" fill="white">
            <use xlink:href="#path-21"></use>
        </mask>
        <path d="M219.988879,41.2011499 L243.020376,24.193742 L254.632004,37.0421021 L256.53133,388.762883 C256.53133,388.762883 244.34677,394.527791 238.042038,396.629246 C231.838962,398.696818 219.007906,401.269963 219.007906,401.269963 L219.988879,41.2011499 Z" id="path-23"></path>
        <mask id="mask-24" maskContentUnits="userSpaceOnUse" maskUnits="objectBoundingBox" x="0" y="0" width="37.5234241" height="377.076221" fill="white">
            <use xlink:href="#path-23"></use>
        </mask>
        <polygon id="path-25" points="177.65052 149.951015 216.476409 120.247719 216.476409 457.617836 174.495066 464.931435"></polygon>
        <mask id="mask-26" maskContentUnits="userSpaceOnUse" maskUnits="objectBoundingBox" x="0" y="0" width="41.9813423" height="344.683716" fill="white">
            <use xlink:href="#path-25"></use>
        </mask>
        <polygon id="path-27" points="127.154485 274.557505 173.75393 235.718325 173.75393 520.128627 152.75393 521.359297 131.75393 520.128627"></polygon>
        <mask id="mask-28" maskContentUnits="userSpaceOnUse" maskUnits="objectBoundingBox" x="0" y="0" width="46.5994452" height="285.640972" fill="white">
            <use xlink:href="#path-27"></use>
        </mask>
        <polygon id="path-29" points="272.416801 38.7345455 286.605937 50.3967912 302.550322 61.9272487 305.617665 192.837344 275.974066 247.232956"></polygon>
        <mask id="mask-30" maskContentUnits="userSpaceOnUse" maskUnits="objectBoundingBox" x="0" y="0" width="33.2008635" height="208.498411" fill="white">
            <use xlink:href="#path-29"></use>
        </mask>
    </defs>
    <g id="Page-1" stroke="none" stroke-width="1" fill="none" fill-rule="evenodd">
        <g id="рыцарь" transform="translate(-62.000000, -85.000000)" stroke="#979797">
            <path d="M515.903521,316.528356 C529.517212,316.536972 556.478823,308.320339 568.484109,297.617935 C580.489395,286.915531 581.835717,263.446289 581.835717,257.751495 C581.835717,252.056702 580.263275,229.970215 568.484109,216.756012 C556.704943,203.541809 538.077251,196.902128 531.432483,190.333265 C530.833606,189.741229 518.308945,178.456345 518.308941,167.901136 C518.308937,159.121991 518.308938,155.852802 526.703815,152.723497 C530.362821,151.359552 533.700485,156.90535 547.669746,156.90535 C561.639008,156.90535 571.985113,154.344207 573.687332,152.723495 C584.225039,142.690368 581.943558,130.798512 581.835724,130.798512 C581.180763,130.798512 573.141473,145.029846 564.01609,145.029846 C554.890708,145.029846 553.364548,144.902357 545.227493,142.326944 C542.455986,141.44975 528.1001,136.514689 526.703813,130.79851 C524.243149,120.724946 536.287223,111.995733 534.82811,112.000002 C523.202971,112.034009 514.260718,112.565009 508.168794,114.374253 C497.986254,117.398369 486.259392,129.849378 483.440324,133.086349 C480.621256,136.32332 491.536292,116.669172 488.151994,120.724946 C486.767348,122.384319 479.171865,125.452817 473.01402,130.798511 C468.65271,134.584614 465.311894,140.974891 464.080833,142.326944 C461.111604,145.587995 458.367969,154.83837 457.332068,158.725702 C454.886988,167.901136 454.886988,173.192197 454.886988,181.6154 C454.886988,190.038602 459.156618,202.218165 459.156617,202.218163 C455.813455,194.765859 447.928564,163.012388 446.424116,169.68749 C418.54353,293.391219 488.806932,316.511207 515.903521,316.528356 Z" id="пушок" fill="#F7CD03"></path>
            <use id="резинка" mask="url(#mask-2)" stroke-width="2" fill="#E70E0E" xlink:href="#path-1"></use>
            <g id="рука" transform="translate(618.000000, 687.000000)">
                <polygon id="Triangle-2" fill="#C5C5C5" transform="translate(127.869860, 310.881204) scale(1, -1) rotate(-35.000000) translate(-127.869860, -310.881204) " points="127.86986 276.005768 139.778545 345.756641 115.961174 345.756641"></polygon>
                <use id="Rectangle-5" mask="url(#mask-4)" stroke-width="2" fill="#D8D8D8" transform="translate(113.382656, 170.281290) rotate(-22.000000) translate(-113.382656, -170.281290) " xlink:href="#path-3"></use>
                <use id="Rectangle-6" mask="url(#mask-6)" stroke-width="2" fill="#D8D8D8" transform="translate(217.329827, 228.871906) rotate(-34.000000) translate(-217.329827, -228.871906) " xlink:href="#path-5"></use>
                <use id="Rectangle-7" mask="url(#mask-8)" stroke-width="2" fill="#D8D8D8" transform="translate(313.993706, 164.927395) rotate(-34.000000) translate(-313.993706, -164.927395) " xlink:href="#path-7"></use>
                <ellipse id="Oval-8" fill="#C5C5C5" transform="translate(159.146834, 264.597513) rotate(-54.000000) translate(-159.146834, -264.597513) " cx="159.146834" cy="264.597513" rx="32.1021835" ry="19.5323224"></ellipse>
                <use id="Rectangle-4" mask="url(#mask-10)" stroke-width="2" fill="#D8D8D8" xlink:href="#path-9"></use>
            </g>
            <g id="секира" transform="translate(986.042745, 879.803860) rotate(7.000000) translate(-986.042745, -879.803860) translate(585.542745, 43.303860)">
                <use id="Rectangle" mask="url(#mask-12)" stroke-width="2" fill="#D8D8D8" xlink:href="#path-11"></use>
                <polygon id="Triangle-4" fill="#FFFCFC" points="343.5 0 371 144 316 144"></polygon>
                <use id="Rectangle-2" mask="url(#mask-14)" stroke-width="2" fill="#FFFCFC" xlink:href="#path-13"></use>
                <use id="Rectangle-3" mask="url(#mask-16)" stroke-width="2" fill="#D8D8D8" xlink:href="#path-15"></use>
                <path d="M95.9520596,302.95206 L254.95206,493.04794 C254.95206,493.04794 99.0237149,391.676684 95.9520596,391.676684 C92.8804043,391.676684 -63.0479404,493.04794 -63.0479404,493.04794 L95.9520596,302.95206 Z" id="Triangle" fill="#FFFCFC" transform="translate(95.952060, 398.000000) rotate(-90.000000) translate(-95.952060, -398.000000) "></path>
                <use id="Rectangle-9" mask="url(#mask-18)" stroke-width="2" fill="#FFFCFC" xlink:href="#path-17"></use>
            </g>
            <g id="пальцы" transform="translate(893.000000, 810.000000)" fill="#D8D8D8">
                <path d="M21,31 C31.5271772,31.0000008 38.2192432,24.6258346 40,16.5 C41.7807568,8.3741654 28.164607,2.84169312 20.9999992,4.52716739 C13.8353914,6.21264167 8.17173035,9.52545228 2,16.5 C-4.17173035,23.4745477 10.4728228,30.9999992 21,31 Z" id="Oval-10"></path>
                <ellipse id="Oval-9" cx="57.6162276" cy="11.1919409" rx="17.6162276" ry="10.8080591"></ellipse>
                <ellipse id="Oval-9" cx="63.3012579" cy="31.707776" rx="18.3012579" ry="9.70777601"></ellipse>
                <ellipse id="Oval-9" cx="60.6162276" cy="50.734633" rx="17.6162276" ry="7.73463304"></ellipse>
            </g>
            <path d="M511.5,677.529316 C532.713351,677.529316 549.888232,669.432963 563.633592,655.8711 C581.84816,637.899694 595.741739,613.444864 602.984367,583.364431 C609.9942,554.250856 608.331895,523.728857 612,484.929574 C618.629876,414.80224 593.64853,384.830077 560.189796,350.532992 C557.498653,347.774418 546.021356,339.010595 542.576661,339.010595 C539.131967,339.010595 521.56646,339.010595 511.5,339.010595 C489.938995,339.010595 477.97603,339.010595 459.232189,356.153037 C432.116364,380.952194 407.566713,432.013324 411.563404,484.929571 C418.522124,577.0631 421.349658,607.398717 450.162173,645.341246 C465.196755,665.139937 485.258459,677.529316 511.5,677.529316 Z" id="голова" fill="#E7E7E7"></path>
            <use id="Rectangle-4" mask="url(#mask-20)" stroke-width="2" fill="#D8D8D8" transform="translate(349.853914, 736.325288) scale(-1, 1) translate(-349.853914, -736.325288) " xlink:href="#path-19"></use>
            <ellipse id="Oval-5" fill="#E7E7E7" cx="511.010773" cy="891" rx="188.010773" ry="213"></ellipse>
            <g id="щиток" transform="translate(397.000000, 402.000000)">
                <circle id="Oval-4" fill="#D8D8D8" cx="13.5" cy="106.5" r="13.5"></circle>
                <circle id="Oval-4" fill="#D8D8D8" cx="215.5" cy="106.5" r="13.5"></circle>
                <path d="M115.5,0 L216,64.1454727 L208.884033,167.935028 C208.884033,167.935028 115.5,229.992187 115.5,229.992187 C115.5,229.992187 22.1340899,167.935028 22.1340899,167.935028 L13.9514386,64.1454697 L115.5,0 Z" id="Combined-Shape" fill="#8B8B8B"></path>
                <ellipse id="Oval-2" fill="#3C3B3B" cx="68" cy="114.5" rx="7" ry="42.5"></ellipse>
                <path d="M98.5,171 C103.19442,171 107,136.942665 107,108.5 C107,80.0573354 103.19442,57 98.5,57 C93.8055796,57 90,80.0573354 90,108.5 C90,136.942665 93.8055796,171 98.5,171 Z" id="Oval-2" fill="#3C3B3B"></path>
                <path d="M130.5,172 C135.19442,172 139,137.942665 139,109.5 C139,81.0573354 135.19442,58 130.5,58 C125.80558,58 122,81.0573354 122,109.5 C122,137.942665 125.80558,172 130.5,172 Z" id="Oval-2" fill="#3C3B3B"></path>
                <ellipse id="Oval-2" fill="#3C3B3B" cx="161" cy="114.5" rx="7" ry="42.5"></ellipse>
            </g>
            <path d="M463.867081,772.029753 L344,694.086299 C344,694.086299 364.753444,684.25868 406.465197,676.996668 C448.176951,669.734656 471.591423,666 471.591423,666 C471.591423,666 483.663823,671.462892 489.379776,673.204501 C495.694163,675.128448 511.322495,676.996668 511.322495,676.996668 C511.322495,676.996668 524.412185,675.068869 529.927063,673.204501 C535.255054,671.403313 548.616806,666 548.616806,666 C548.616806,666 599.103085,673.323478 623.740234,676.996668 C648.377384,680.669857 685.021545,694.086299 685.021545,694.086299 C644.90185,720.473775 598.019918,744.061351 557.900223,770.448827 C540.120236,782.143058 511.322502,808.331419 511.322502,808.331419 L463.867081,772.029753 Z" id="верх" fill="#5F5F5F"></path>
            <use id="юбка" mask="url(#mask-22)" stroke-width="2" fill="#C8C4C4" xlink:href="#path-21"></use>
            <g id="щит" transform="translate(0.000000, 707.000000)">
                <path d="M214.22083,1.08002496e-12 C258.07629,-2.21294108e-10 421.343412,191.922237 427.257489,217.126653 C433.171566,242.33107 345.884726,568.444959 345.884726,568.444959 C345.884726,568.444959 280.052789,556.769287 214.220837,556.769287 C148.388885,556.769287 82.5569332,568.444959 82.5569332,568.444959 C82.5569332,568.444959 -6.51358034,245.826111 1.18417006,217.126653 C8.88192047,188.427196 170.365369,2.23454151e-10 214.22083,1.08002496e-12 Z" id="Polygon-2" fill="#8B8B8B" transform="translate(214.128745, 284.222479) rotate(-180.000000) translate(-214.128745, -284.222479) "></path>
                <path d="M213.727242,65 C244.687216,65 359.94643,213.218153 364.121501,232.683079 C368.296572,252.148005 306.676006,504 306.676006,504 C306.676006,504 260.201631,494.983085 213.727247,494.983085 C167.252862,494.983085 120.778478,504 120.778478,504 C120.778478,504 57.8987183,254.847163 63.3329824,232.683079 C68.7672465,210.518995 182.767267,65 213.727242,65 Z" id="Polygon-2" fill="#E7E7E7" transform="translate(213.662234, 284.500000) rotate(-180.000000) translate(-213.662234, -284.500000) "></path>
                <path d="M277,60 C283.627417,60 289,54.627417 289,48 C289,41.372583 283.627417,36 277,36 C270.372583,36 265,41.372583 265,48 C265,54.627417 270.372583,60 277,60 Z" id="Oval-11" fill="#C7C4C4"></path>
                <path d="M347,122 C353.627417,122 359,116.627417 359,110 C359,103.372583 353.627417,98 347,98 C340.372583,98 335,103.372583 335,110 C335,116.627417 340.372583,122 347,122 Z" id="Oval-11" fill="#C7C4C4"></path>
                <path d="M370,225 C376.627417,225 382,219.627417 382,213 C382,206.372583 376.627417,201 370,201 C363.372583,201 358,206.372583 358,213 C358,219.627417 363.372583,225 370,225 Z" id="Oval-11" fill="#C7C4C4"></path>
                <path d="M393,350 C399.627417,350 405,344.627417 405,338 C405,331.372583 399.627417,326 393,326 C386.372583,326 381,331.372583 381,338 C381,344.627417 386.372583,350 393,350 Z" id="Oval-11" fill="#C7C4C4"></path>
                <path d="M54,225 C60.627417,225 66,219.627417 66,213 C66,206.372583 60.627417,201 54,201 C47.372583,201 42,206.372583 42,213 C42,219.627417 47.372583,225 54,225 Z" id="Oval-11" fill="#C7C4C4"></path>
                <path d="M82,122 C88.627417,122 94,116.627417 94,110 C94,103.372583 88.627417,98 82,98 C75.372583,98 70,103.372583 70,110 C70,116.627417 75.372583,122 82,122 Z" id="Oval-11" fill="#C7C4C4"></path>
                <path d="M214,60 C220.627417,60 226,54.627417 226,48 C226,41.372583 220.627417,36 214,36 C207.372583,36 202,41.372583 202,48 C202,54.627417 207.372583,60 214,60 Z" id="Oval-11" fill="#C7C4C4"></path>
                <path d="M151,60 C157.627417,60 163,54.627417 163,48 C163,41.372583 157.627417,36 151,36 C144.372583,36 139,41.372583 139,48 C139,54.627417 144.372583,60 151,60 Z" id="Oval-11" fill="#C7C4C4"></path>
                <use id="Rectangle-8" mask="url(#mask-24)" stroke-width="2" fill="#E70F0F" transform="translate(237.769618, 212.731853) rotate(-40.000000) translate(-237.769618, -212.731853) " xlink:href="#path-23"></use>
                <use id="Rectangle-8" mask="url(#mask-26)" stroke-width="2" fill="#E70F0F" transform="translate(195.485738, 292.589577) rotate(-40.000000) translate(-195.485738, -292.589577) " xlink:href="#path-25"></use>
                <use id="Rectangle-8" mask="url(#mask-28)" stroke-width="2" fill="#E70F0F" transform="translate(150.454208, 378.538811) rotate(-40.000000) translate(-150.454208, -378.538811) " xlink:href="#path-27"></use>
                <use id="Rectangle-8" mask="url(#mask-30)" stroke-width="2" fill="#E70F0F" transform="translate(289.017233, 142.983751) rotate(-40.000000) translate(-289.017233, -142.983751) " xlink:href="#path-29"></use>
            </g>
        </g>
    </g>
</svg>