<?xml version="1.0" encoding="UTF-8" standalone="no"?>
<svg width="523px" height="511px" viewBox="0 0 523 511" version="1.1" xmlns="http://www.w3.org/2000/svg" xmlns:xlink="http://www.w3.org/1999/xlink">
    <!-- Generator: Sketch 39.1 (31720) - http://www.bohemiancoding.com/sketch -->
    <title>утко</title>
    <desc>Created with Sketch.</desc>
    <defs></defs>
    <g id="Page-1" stroke="none" stroke-width="1" fill="none" fill-rule="evenodd">
        <g id="утко" transform="translate(260.000000, 255.000000) scale(-1, 1) translate(-260.000000, -255.000000) translate(-2.000000, -11.000000)" stroke="#979797">
            <path d="M204.569192,103.044796 C229.422006,103.044796 249.569192,85.1361864 249.569192,63.0447964 C249.569192,44.8803297 230.502622,8.98347704 221.188898,8.98347704 C211.875173,8.98347704 204.197358,20.8195957 199.779569,20.8195957 C194.60435,20.8195957 192.387239,16.9988436 185.644756,18.224996 C178.902273,19.4511484 159.569192,45.5536009 159.569192,63.0447964 C159.569192,85.1361864 179.716379,103.044796 204.569192,103.044796 Z" id="Oval-8" fill="#545454" transform="translate(204.569192, 56.014137) rotate(9.000000) translate(-204.569192, -56.014137) "></path>
            <path d="M202,115 C237.346224,115 265.164551,115.560579 265.164551,97.0590401 C265.164551,78.557501 237.346224,48 202,48 C166.653776,48 137.486438,59.6744157 137.486438,78.1759548 C137.486438,96.6774939 166.653776,115 202,115 Z" id="Oval-7" fill="#2A2A2A"></path>
            <path d="M160.211943,54.1105089 C161.739336,53.7202625 184.084627,47.3185081 197.518341,47.3185081 C209.767752,47.3185081 223.570331,50.7979113 232.248324,55.6034117 C234.156259,56.6599445 247.910029,65.9578972 247.910029,65.9578972 C247.910029,65.9578972 247.768185,63.7691362 247.910031,61.4777298 C248.112461,58.2076261 246.99854,55.8435381 246.99854,55.6034117 C246.99854,53.6704151 220.986756,38.4640079 195.912767,40.3356816 C170.838777,42.2073553 161.134035,47.2843585 161.134035,48.6643548 C161.134035,49.3962158 158.68455,54.5007553 160.211943,54.1105089 Z" id="Oval-9" fill="#FFFFFF"></path>
            <path d="M129.461262,518.724848 C129.461262,525.13267 153.623813,497.153261 158.423577,497.153261 C163.850711,497.153261 154.325235,528.734685 158.423577,523.153109 C164.751788,514.534651 183.423577,494.541687 183.423577,478.619715 C183.423577,452.386189 172.230696,431.119715 158.423577,431.119715 C144.616458,431.119715 141.226333,452.386189 141.226333,478.619715 C141.226333,495.733689 129.461263,512.317026 129.461262,518.724848 Z" id="Oval-5" fill="#FFAE05" transform="translate(156.442420, 477.467102) rotate(30.000000) translate(-156.442420, -477.467102) "></path>
            <ellipse id="Oval-6" fill="#979797" transform="translate(76.386004, 264.709958) rotate(20.000000) translate(-76.386004, -264.709958) " cx="76.3860045" cy="264.709958" rx="27" ry="46.5"></ellipse>
            <path d="M213.13189,483.237911 C247.10917,483.237911 318.855045,477.817728 363.595059,463.421062 C441.022514,438.506067 508.701096,342.600157 518.682687,332.557586 C528.664278,322.515016 489.785807,334.802383 479.750558,332.557586 C445.40822,324.87551 418.407661,288.923851 380.891335,262.813186 C345.787769,238.381757 313.645544,222.507397 299.564523,217.434555 C270.434655,206.940201 265.753106,204.442673 257.940713,185.119797 C228.387534,112.024088 264.0021,73.2468506 198.431649,65.7511502 C143.192463,59.4364705 142.755882,129.27743 111.749233,185.119795 C80.7425852,240.96216 42.4424828,304.399168 42.4424828,352.052853 C42.4424828,446.493545 120.353234,483.237911 213.13189,483.237911 Z" id="туловко" fill="#FEFEFE" transform="translate(281.374726, 274.294844) rotate(-1.000000) translate(-281.374726, -274.294844) "></path>
            <path d="M291.660059,521.771179 C291.660059,528.179001 308.580376,502.467163 313.38014,502.467163 C318.807274,502.467163 301.332191,520.205658 303.42513,525.219345 C305.518069,530.233032 345.622374,502.929535 345.622374,481.666046 C345.622374,455.432521 334.429492,434.166046 320.622374,434.166046 C306.815255,434.166046 303.42513,455.432521 303.42513,481.666046 C303.42513,498.78002 291.660059,515.363358 291.660059,521.771179 Z" id="Oval-5" fill="#FFAE05" transform="translate(318.641216, 479.994013) rotate(14.000000) translate(-318.641216, -479.994013) "></path>
            <circle id="Oval-2" fill="#000000" cx="217.5" cy="124.5" r="7.5"></circle>
            <path d="M90.8661808,162.334958 C140.777052,166.925593 139.83787,163.80867 149.779999,159.527475 C159.722128,155.24628 169.124313,145.571305 169.124313,139.501917 C169.124313,134.288359 163.901534,124.100211 152.932587,120.256572 C137.370298,114.803376 117.108984,113.236921 90.8661808,116.668877 C47.8576447,122.293407 2.26951823e-15,129.996645 0,139.501917 C1.94008608e-15,149.00719 40.9553098,157.744323 90.8661808,162.334958 Z" id="клювище" fill="#F3FF03"></path>
            <path d="M1.5,139.5 L139.5,139.5" id="Line" stroke-linecap="square"></path>
            <path d="M149.829044,151.146119 C149.969137,151.146119 140.539655,150.294304 140.539655,139.651857 C140.539655,129.00941 149.969138,127.725911 149.829044,127.725911 C149.688951,127.725911 140.539655,130.583001 140.539655,139.651857 C140.539655,148.720713 149.688951,151.146119 149.829044,151.146119 Z" id="Oval" fill="#D8D8D8"></path>
            <ellipse id="Oval-3" fill="#000000" transform="translate(421.500000, 406.500000) rotate(-21.000000) translate(-421.500000, -406.500000) " cx="421.5" cy="406.5" rx="7.5" ry="3.5"></ellipse>
            <path d="M322.515084,361.501274 C423.140698,352.283043 458.4473,256.677958 458.4473,256.677958 C458.4473,256.677958 373.66959,244.116455 322.51508,244.116455 C284.317438,244.116455 245.461762,248.943797 221.686111,256.677958 C197.91046,264.412119 221.88947,370.719505 322.515084,361.501274 Z" id="Oval-4" fill="#979797" transform="translate(335.828662, 303.091904) rotate(30.000000) translate(-335.828662, -303.091904) "></path>
        </g>
    </g>
</svg>