<svg width="952" height="962" viewBox="0 0 952 962" xmlns="http://www.w3.org/2000/svg" xmlns:xlink="http://www.w3.org/1999/xlink"><title>рыцарь</title><defs><path d="M489 310.528s12.909 4.798 24.932 4.798c12.023 0 21.725-2.887 21.725-2.887l-1.196 27.453L489 339.14v-28.61z" id="a"/><mask id="p" x="0" y="0" width="46.657" height="29.364" fill="#fff"><use xlink:href="#a"/></mask><path d="M93.601 49.74h42.178v238.736s-22.065 5.28-36.483 0c-14.418-5.28-5.695-238.736-5.695-238.736z" id="b"/><mask id="q" x="0" y="0" width="44.793" height="241.082" fill="#fff"><use xlink:href="#b"/></mask><path id="c" d="M139.185 213.418h156.291v30.907H139.185z"/><mask id="r" x="0" y="0" width="156.291" height="30.907" fill="#fff"><use xlink:href="#c"/></mask><path d="M265.952 132.097c4.376-3.115 69.754-10.537 88.673 0 18.92 10.536 10.95 43.443-8.928 60.404-19.878 16.96-75.197 9.898-79.745 4.974-4.547-4.923-4.376-62.264 0-65.378z" id="d"/><mask id="s" x="0" y="0" width="102.776" height="76.571" fill="#fff"><use xlink:href="#d"/></mask><path d="M44.836 2.1a208.238 208.238 0 0 1 21.12 6.788c26.576 10.167 50.354 25.974 55.398 45.937.213.841.354 2.497.354 2.497L47.432 97.565 0 38.078S10.843-6.878 44.836 2.1z" id="e"/><mask id="t" x="0" y="0" width="121.708" height="96.651" fill="#fff"><use xlink:href="#e"/></mask><path id="f" d="M330 132h25v1541h-25z"/><mask id="u" x="0" y="0" width="25" height="1541" fill="#fff"><use xlink:href="#f"/></mask><path id="g" d="M315 208h56v39h-56z"/><mask id="v" x="0" y="0" width="56" height="39" fill="#fff"><use xlink:href="#g"/></mask><path d="M53.48 397.556c5.293-17.944 135.922-158.11 135.922-158.11s-2.05 67.376 34.394 75.278c52.717 11.43 222.392 0 222.392 0s43.652-9.073 63.067-29.566 27.377-45.713 27.377-45.713 5.411 20.31 5.411 38.638-5.41 36.64-5.41 36.64 10.033-9.791 20.502-32.784c5.124-11.253 73.323 86.163 73.323 115.617 0 29.454-69.626 117.536-73.323 104.201-7.24-26.115-20.503-33.273-20.503-33.273s5.411 18.943 5.411 41.732c0 22.788-5.41 45.598-5.41 45.598S526 530.625 509.254 513.107c-16.746-17.519-63.067-26.895-63.067-26.895s-192.733-24.155-222.392 0c-29.659 24.155-34.394 69.602-34.394 69.602S48.187 415.5 53.48 397.556z" id="h"/><mask id="w" x="0" y="0" width="577.123" height="316.369" fill="#fff"><use xlink:href="#h"/></mask><rect id="i" x="321" y="316" width="43" height="164" rx="8"/><mask id="x" x="0" y="0" width="43" height="164" fill="#fff"><use xlink:href="#i"/></mask><path d="M333.836 689.186a208.238 208.238 0 0 1 21.12 6.787c26.576 10.167 50.354 25.975 55.398 45.938.213.84.354 2.496.354 2.496l-74.276 40.244L289 725.163s10.843-44.956 44.836-35.977z" id="j"/><mask id="y" x="0" y="0" width="121.708" height="96.651" fill="#fff"><use xlink:href="#j"/></mask><path d="M322.723 1107.45c7.358-30.928 32.419-98.263 32.419-98.263s19.924 21.979 39.349 31.77c19.425 9.791 51.7 17.365 51.7 17.365s31.577 6.718 64.851 5.844c33.274-.874 42.25-.527 68.129-5.844 25.879-5.317 34.354-7.513 47.185-14.2 12.832-6.687 41.362-34.935 41.362-34.935s12.692 24.706 22.362 54.979c9.669 30.272 11.333 34.2 11.333 50.066 0 15.865-3.072 31.225-3.072 31.225H322.723s-3.448-23.512 0-38.007z" id="k"/><mask id="z" x="0" y="0" width="380.222" height="136.27" fill="#fff"><use xlink:href="#k"/></mask><path d="M219.989 41.201l23.031-17.007 11.612 12.848 1.9 351.72s-12.185 5.766-18.49 7.867c-6.203 2.068-19.034 4.641-19.034 4.641l.98-360.069z" id="l"/><mask id="A" x="0" y="0" width="37.523" height="377.076" fill="#fff"><use xlink:href="#l"/></mask><path id="m" d="M177.65 149.951l38.826-29.703v337.37l-41.98 7.313z"/><mask id="B" x="0" y="0" width="41.981" height="344.684" fill="#fff"><use xlink:href="#m"/></mask><path id="n" d="M127.154 274.558l46.6-38.84v284.41l-21 1.231-21-1.23z"/><mask id="C" x="0" y="0" width="46.599" height="285.641" fill="#fff"><use xlink:href="#n"/></mask><path id="o" d="M272.417 38.735l14.189 11.662 15.944 11.53 3.068 130.91-29.644 54.396z"/><mask id="D" x="0" y="0" width="33.201" height="208.498" fill="#fff"><use xlink:href="#o"/></mask></defs><g transform="translate(-62 -85)" stroke="#979797" fill="none" fill-rule="evenodd"><path d="M515.904 316.528c13.613.009 40.575-8.208 52.58-18.91 12.005-10.702 13.352-34.172 13.352-39.867 0-5.694-1.573-27.78-13.352-40.995-11.78-13.214-30.407-19.854-37.052-26.423-.598-.592-13.123-11.877-13.123-22.432 0-8.779 0-12.048 8.395-15.178 3.659-1.363 6.996 4.182 20.966 4.182 13.969 0 24.315-2.56 26.017-4.182 10.538-10.033 8.257-21.924 8.149-21.924-.655 0-8.695 14.23-17.82 14.23s-10.651-.127-18.789-2.702c-2.771-.877-17.127-5.812-18.523-11.528-2.46-10.074 9.583-18.803 8.124-18.799-11.625.034-20.567.565-26.66 2.374-10.182 3.024-21.909 15.475-24.728 18.712-2.819 3.237 8.096-16.417 4.712-12.361-1.385 1.66-8.98 4.728-15.138 10.074-4.361 3.786-7.702 10.176-8.933 11.528-2.97 3.261-5.713 12.511-6.749 16.399-2.445 9.175-2.445 14.466-2.445 22.89 0 8.423 4.27 20.602 4.27 20.602-3.344-7.452-11.228-39.206-12.733-32.53-27.88 123.703 42.383 146.823 69.48 146.84z" fill="#F7CD03"/><use mask="url(#p)" stroke-width="2" fill="#E70E0E" xlink:href="#a"/><g transform="translate(618 687)"><path fill="#C5C5C5" d="M107.866 339.45l49.763-50.307-19.51-13.66z"/><use mask="url(#q)" stroke-width="2" fill="#D8D8D8" transform="rotate(-22 113.383 170.281)" xlink:href="#b"/><use mask="url(#r)" stroke-width="2" fill="#D8D8D8" transform="rotate(-34 217.33 228.872)" xlink:href="#c"/><use mask="url(#s)" stroke-width="2" fill="#D8D8D8" transform="rotate(-34 313.994 164.927)" xlink:href="#d"/><ellipse fill="#C5C5C5" transform="rotate(-54 159.147 264.598)" cx="159.147" cy="264.598" rx="32.102" ry="19.532"/><use mask="url(#t)" stroke-width="2" fill="#D8D8D8" xlink:href="#e"/></g><g transform="rotate(7 339.265 5644.922)"><use mask="url(#u)" stroke-width="2" fill="#D8D8D8" xlink:href="#f"/><path fill="#FFFCFC" d="M343.5 0L371 144h-55z"/><use mask="url(#v)" stroke-width="2" fill="#FFFCFC" xlink:href="#g"/><use mask="url(#w)" stroke-width="2" fill="#D8D8D8" xlink:href="#h"/><path d="M.904 398L191 239S89.629 394.928 89.629 398C89.629 401.072 191 557 191 557L.904 398z" fill="#FFFCFC"/><use mask="url(#x)" stroke-width="2" fill="#FFFCFC" xlink:href="#i"/></g><g transform="translate(893 810)" fill="#D8D8D8"><path d="M21 31c10.527 0 17.22-6.374 19-14.5C41.78 8.374 28.165 2.842 21 4.527 13.835 6.213 8.172 9.525 2 16.5-4.172 23.475 10.473 31 21 31z"/><ellipse cx="57.616" cy="11.192" rx="17.616" ry="10.808"/><ellipse cx="63.301" cy="31.708" rx="18.301" ry="9.708"/><ellipse cx="60.616" cy="50.735" rx="17.616" ry="7.735"/></g><path d="M511.5 677.53c21.213 0 38.388-8.097 52.134-21.659 18.214-17.971 32.108-42.426 39.35-72.507 7.01-29.113 5.348-59.635 9.016-98.434 6.63-70.128-18.351-100.1-51.81-134.397-2.691-2.759-14.169-11.522-17.613-11.522H511.5c-21.561 0-33.524 0-52.268 17.142-27.116 24.8-51.665 75.86-47.669 128.777 6.96 92.133 9.787 122.469 38.6 160.411 15.034 19.799 35.095 32.188 61.337 32.188z" fill="#E7E7E7"/><use mask="url(#y)" stroke-width="2" fill="#D8D8D8" transform="matrix(-1 0 0 1 699.708 0)" xlink:href="#j"/><ellipse fill="#E7E7E7" cx="511.011" cy="891" rx="188.011" ry="213"/><g transform="translate(397 402)"><circle fill="#D8D8D8" cx="13.5" cy="106.5" r="13.5"/><circle fill="#D8D8D8" cx="215.5" cy="106.5" r="13.5"/><path d="M115.5 0L216 64.145l-7.116 103.79-93.384 62.057-93.366-62.057-8.183-103.79L115.5 0z" fill="#8B8B8B"/><ellipse fill="#3C3B3B" cx="68" cy="114.5" rx="7" ry="42.5"/><path d="M98.5 171c4.694 0 8.5-34.057 8.5-62.5 0-28.443-3.806-51.5-8.5-51.5S90 80.057 90 108.5s3.806 62.5 8.5 62.5zM130.5 172c4.694 0 8.5-34.057 8.5-62.5 0-28.443-3.806-51.5-8.5-51.5s-8.5 23.057-8.5 51.5 3.806 62.5 8.5 62.5z" fill="#3C3B3B"/><ellipse fill="#3C3B3B" cx="161" cy="114.5" rx="7" ry="42.5"/></g><path d="M463.867 772.03L344 694.086s20.753-9.827 62.465-17.09C448.177 669.736 471.591 666 471.591 666s12.073 5.463 17.789 7.205c6.314 1.923 21.942 3.792 21.942 3.792s13.09-1.928 18.605-3.792c5.328-1.802 18.69-7.205 18.69-7.205s50.486 7.323 75.123 10.997c24.637 3.673 61.282 17.09 61.282 17.09-40.12 26.387-87.002 49.974-127.122 76.362-17.78 11.694-46.577 37.882-46.577 37.882l-47.456-36.301z" fill="#5F5F5F"/><use mask="url(#z)" stroke-width="2" fill="#C8C4C4" xlink:href="#k"/><g transform="translate(0 707)"><path d="M214.037 568.445C170.18 568.445 6.914 376.523 1 351.318-4.914 326.114 82.373 0 82.373 0s65.832 11.676 131.664 11.676S345.7 0 345.7 0s89.07 322.619 81.372 351.318c-7.697 28.7-169.18 217.127-213.036 217.127z" fill="#8B8B8B"/><path d="M213.597 504c-30.96 0-146.219-148.218-150.394-167.683C59.028 316.852 120.648 65 120.648 65s46.475 9.017 92.95 9.017c46.474 0 92.948-9.017 92.948-9.017s62.88 249.153 57.445 271.317C358.557 358.48 244.557 504 213.597 504z" fill="#E7E7E7"/><path d="M277 60c6.627 0 12-5.373 12-12s-5.373-12-12-12-12 5.373-12 12 5.373 12 12 12zM347 122c6.627 0 12-5.373 12-12s-5.373-12-12-12-12 5.373-12 12 5.373 12 12 12zM370 225c6.627 0 12-5.373 12-12s-5.373-12-12-12-12 5.373-12 12 5.373 12 12 12zM393 350c6.627 0 12-5.373 12-12s-5.373-12-12-12-12 5.373-12 12 5.373 12 12 12zM54 225c6.627 0 12-5.373 12-12s-5.373-12-12-12-12 5.373-12 12 5.373 12 12 12zM82 122c6.627 0 12-5.373 12-12s-5.373-12-12-12-12 5.373-12 12 5.373 12 12 12zM214 60c6.627 0 12-5.373 12-12s-5.373-12-12-12-12 5.373-12 12 5.373 12 12 12zM151 60c6.627 0 12-5.373 12-12s-5.373-12-12-12-12 5.373-12 12 5.373 12 12 12z" fill="#C7C4C4"/><use mask="url(#A)" stroke-width="2" fill="#E70F0F" transform="rotate(-40 237.77 212.732)" xlink:href="#l"/><use mask="url(#B)" stroke-width="2" fill="#E70F0F" transform="rotate(-40 195.486 292.59)" xlink:href="#m"/><use mask="url(#C)" stroke-width="2" fill="#E70F0F" transform="rotate(-40 150.454 378.539)" xlink:href="#n"/><use mask="url(#D)" stroke-width="2" fill="#E70F0F" transform="rotate(-40 289.017 142.984)" xlink:href="#o"/></g></g></svg>