<svg width="523" height="511" viewBox="0 0 523 511" xmlns="http://www.w3.org/2000/svg"><title>утко</title><g transform="matrix(-1 0 0 1 522 -11)" stroke="#979797" fill="none" fill-rule="evenodd"><path d="M197.212 102.466c24.547 3.888 47.247-10.649 50.703-32.468 2.842-17.941-10.374-56.379-19.574-57.836-9.199-1.457-18.633 9.033-22.997 8.342-5.111-.81-6.703-4.93-13.555-4.774-6.851.156-30.03 22.913-32.766 40.189-3.455 21.82 13.642 42.659 38.189 46.547z" fill="#545454"/><path d="M202 115c35.346 0 63.165.56 63.165-17.941C265.165 78.558 237.346 48 202 48c-35.346 0-64.514 11.674-64.514 30.176C137.486 96.677 166.654 115 202 115z" fill="#2A2A2A"/><path d="M160.212 54.11c1.527-.39 23.873-6.791 37.306-6.791 12.25 0 26.052 3.479 34.73 8.284 1.908 1.057 15.662 10.355 15.662 10.355s-.142-2.189 0-4.48c.202-3.27-.911-5.634-.911-5.875 0-1.933-26.012-17.139-51.086-15.267-25.074 1.871-34.779 6.948-34.779 8.328 0 .732-2.45 5.837-.922 5.447z" fill="#FFF"/><path d="M112.447 499.707c-3.204 5.55 31.711-6.6 35.868-4.2 4.7 2.713-19.34 25.3-13 22.516 9.79-4.3 35.956-12.278 43.917-26.067 13.117-22.719 14.057-46.733 2.1-53.636-11.957-6.904-25.527 9.818-38.643 32.537-8.557 14.821-27.038 23.3-30.242 28.85z" fill="#FFAE05"/><ellipse fill="#979797" transform="rotate(20 76.386 264.71)" cx="76.386" cy="264.71" rx="27" ry="46.5"/><path d="M216.789 484.397c33.972-.593 105.612-7.264 150.094-22.44 76.981-26.262 142.976-123.335 152.78-133.55 9.805-10.215-28.853 2.749-38.926.68-34.471-7.082-62.095-42.557-100.061-68.009-35.525-23.815-67.94-39.126-82.107-43.952-29.308-9.985-34.033-12.4-42.181-31.584-30.824-72.568 4.108-111.961-61.583-118.312-55.341-5.35-54.559 64.489-84.586 120.864-30.028 56.375-67.215 120.47-66.383 168.117 1.648 94.426 80.188 129.805 172.953 128.186z" fill="#FEFEFE"/><path d="M282.355 514.003c-1.55 6.217 21.087-14.637 25.745-13.476 5.266 1.313-15.982 14.297-15.164 19.668.818 5.37 46.336-11.42 51.48-32.051 6.347-25.455.631-48.797-12.766-52.137-13.397-3.34-21.83 16.474-28.177 41.928-4.14 16.606-19.568 29.85-21.118 36.068z" fill="#FFAE05"/><circle fill="#000" cx="217.5" cy="124.5" r="7.5"/><path d="M90.866 162.335c49.911 4.59 48.972 1.474 58.914-2.808 9.942-4.28 19.344-13.956 19.344-20.025 0-5.214-5.222-15.402-16.191-19.245-15.563-5.454-35.824-7.02-62.067-3.588C47.858 122.293 0 129.997 0 139.502c0 9.505 40.955 18.242 90.866 22.833z" fill="#F3FF03"/><path d="M1.5 139.5h138" stroke-linecap="square"/><path d="M149.829 151.146c.14 0-9.29-.852-9.29-11.494 0-10.643 9.43-11.926 9.29-11.926-.14 0-9.29 2.857-9.29 11.926 0 9.069 9.15 11.494 9.29 11.494z" fill="#D8D8D8"/><ellipse fill="#000" transform="rotate(-21 421.5 406.5)" cx="421.5" cy="406.5" rx="7.5" ry="3.5"/><path d="M295.094 347.02c91.754 42.329 170.132-22.814 170.132-22.814s-67.138-53.268-111.44-78.845c-33.08-19.099-69.143-34.346-93.6-39.536-24.458-5.19-56.845 98.865 34.908 141.194z" fill="#979797"/></g></svg>