<svg width="18612" height="1366" viewBox="0 0 18612 1366" xmlns="http://www.w3.org/2000/svg"><title>Group</title><g stroke="#979797" fill="none" fill-rule="evenodd"><path d="M5969.661 1179.54h1711.326S6668.3 2 5969.66 2 4119 926.593 4119 1179.54c0 52.853 1298.003 0 1850.661 0z" fill="#1F2D1E"/><path d="M3758.661 1242.51h1711.326S4968.942 602 4270.302 602C3571.662 602 1908 1108.03 1908 1242.51c0 28.101 1298.003 0 1850.661 0z" fill="#0C511B"/><path d="M3758.661 1242.51h1711.326S4968.942 602 4270.302 602C3571.662 602 1908 1108.03 1908 1242.51c0 28.101 1298.003 0 1850.661 0z" fill="#0C511B"/><path d="M7343.326 1334.84H5632S6336.876 510 7035.516 510c698.64 0 2158.47 690.358 2158.47 824.84 0 28.1-1298.002 0-1850.66 0z" fill="#217709"/><path d="M4188.661 1178.54h1711.326S4887.3 1 4188.66 1 2338 925.593 2338 1178.54c0 52.853 1298.003 0 1850.661 0z" fill="#273F27"/><path d="M9263.918 1362.452V147s-1253.786 0-1850.661 1177.54c-25.45 50.206 1850.66 37.912 1850.66 37.912z" fill="#288F0C"/><path d="M9263.918 1362.452V147s-1253.786 0-1850.661 1177.54c-25.45 50.206 1850.66 37.912 1850.66 37.912z" fill="none"/><path d="M2776.661 1321.51h1711.326S3182.267 597 2483.627 597C1784.987 597 926 1187.03 926 1321.51c0 28.101 1298.003 0 1850.661 0z" fill="#0C511B"/><path d="M5562.326 1334.84H3851S4555.876 510 5254.516 510c698.64 0 2158.47 690.358 2158.47 824.84 0 28.1-1298.002 0-1850.66 0zM1 1332.452V117s1253.786 0 1850.661 1177.54C1877.111 1344.745 1 1332.451 1 1332.451z" fill="#288F0C"/><g><path d="M15316.661 1180.54h1711.326S16015.3 3 15316.66 3 13466 927.593 13466 1180.54c0 52.853 1298.003 0 1850.661 0z" fill="#1F2D1E"/><path d="M13105.661 1243.51h1711.326S14315.942 603 13617.302 603c-698.64 0-2362.302 506.03-2362.302 640.51 0 28.101 1298.003 0 1850.661 0z" fill="#0C511B"/><path d="M13105.661 1243.51h1711.326S14315.942 603 13617.302 603c-698.64 0-2362.302 506.03-2362.302 640.51 0 28.101 1298.003 0 1850.661 0z" fill="#0C511B"/><path d="M16690.326 1335.84H14979S15683.876 511 16382.516 511c698.64 0 2158.47 690.358 2158.47 824.84 0 28.1-1298.002 0-1850.66 0z" fill="#217709"/><path d="M13535.661 1179.54h1711.326S14234.3 2 13535.66 2 11685 926.593 11685 1179.54c0 52.853 1298.003 0 1850.661 0z" fill="#273F27"/><path d="M18610.918 1363.452V148s-1253.786 0-1850.661 1177.54c-25.45 50.206 1850.66 37.912 1850.66 37.912z" fill="#288F0C"/><path d="M18610.918 1363.452V148s-1253.786 0-1850.661 1177.54c-25.45 50.206 1850.66 37.912 1850.66 37.912z" fill="#288F0C"/><path d="M12123.661 1322.51h1711.326S12529.267 598 11830.627 598c-698.64 0-1557.627 590.03-1557.627 724.51 0 28.101 1298.003 0 1850.661 0z" fill="#0C511B"/><path d="M14909.326 1335.84H13198S13902.876 511 14601.516 511c698.64 0 2158.47 690.358 2158.47 824.84 0 28.1-1298.002 0-1850.66 0z" fill="#288F0C"/><path d="M9252 1363.452V148s1253.786 0 1850.661 1177.54c25.45 50.206-1850.661 37.912-1850.661 37.912z" fill="#288F0C" stroke="none"/></g></g></svg>