<?xml version="1.0" encoding="UTF-8" standalone="no"?>
<svg width="6354px" height="3403px" viewBox="0 0 6354 3403" version="1.1" xmlns="http://www.w3.org/2000/svg" xmlns:xlink="http://www.w3.org/1999/xlink">
  <!-- Generator: Sketch 39.1 (31720) - http://www.bohemiancoding.com/sketch -->
  <title>rainbow</title>
  <desc>Created with Sketch.</desc>
  <defs></defs>
  <g id="Page-1" stroke="none" stroke-width="1" fill="none" fill-rule="evenodd">
    <g id="rainbow" transform="translate(3551.516922, 1148.803813) rotate(16.000000) translate(-3551.516922, -1148.803813) translate(238.016922, -245.696187)" stroke="#979797">
      <path d="M4168.45705,182.136979 C5872.35519,182.136979 6352.88579,2451.4838 6352.88579,2451.4838 C6352.88579,2451.4838 6286.99688,0.591429176 4448.7845,0.591429176 C2610.57213,0.591429176 722.656485,1849.32345 722.656485,1849.32345 C722.656485,1849.32345 2464.55892,182.136979 4168.45705,182.136979 Z" id="Oval-25" fill="#E404FF"></path>
      <path d="M3887.78287,394.73515 C5725.99524,394.73515 6380.79625,2444.96398 6380.79625,2444.96398 C6380.79625,2444.96398 5951.46975,161.181692 4113.25737,161.181692 C2275.045,161.181692 512.166556,2072.71874 512.166556,2072.71874 C512.166556,2072.71874 2049.57049,394.73515 3887.78287,394.73515 Z" id="Oval-25" fill="#1504FF"></path>
      <path d="M3704.5763,518.402935 C5542.78867,518.402935 6414.86126,2642.05735 6441.44709,2588.22544 C6468.03292,2534.39352 5761.93533,341.493566 3923.72296,341.493566 C2085.51058,341.493566 458.512855,2136.88107 406.294387,2179.03519 C354.075918,2221.18932 1866.36392,518.402935 3704.5763,518.402935 Z" id="Oval-25" fill="#04DCFF"></path>
      <path d="M3517.85735,678.32589 C5356.06973,678.32589 6453.92831,2580.4372 6453.92831,2532.27314 C6453.92831,2484.10908 5508.36903,509.127262 3670.15665,509.127262 C1831.94428,509.127262 121.832269,2407.67385 158.29761,2473.07821 C194.762951,2538.48257 1679.64498,678.32589 3517.85735,678.32589 Z" id="Oval-25" fill="#09FF04"></path>
      <path d="M3343.55709,870.019567 C5181.76947,870.019567 6577.50909,2800.03308 6609.16188,2743.90542 C6630.26093,2706.49197 6043.07768,1790.45611 5104.73461,1183.76183 C4635.37522,880.293236 4078.15557,654.221973 3465.25459,654.221973 C1627.04221,654.221973 99.6940462,2540.69297 70.8652629,2591.81302 C42.0364795,2642.93307 1505.34472,870.019567 3343.55709,870.019567 Z" id="Oval-25" fill="#FF8304"></path>
      <path d="M3273.1589,1118.94191 C5111.37127,1118.94191 6626.40985,2855.04415 6626.40985,2786.43891 C6626.40985,2717.83367 5111.37127,859.890205 3273.1589,859.890205 C1434.94652,859.890205 0.0538415622,2657.51161 0.0538415622,2718.41287 C0.0538415622,2779.31413 1434.94652,1118.94191 3273.1589,1118.94191 Z" id="Oval-25" fill="#FF0000"></path>
    </g>
  </g>
</svg>