<?xml version="1.0" encoding="UTF-8" standalone="no"?>
<svg width="4759px" height="77px" viewBox="0 0 4759 77" version="1.1" xmlns="http://www.w3.org/2000/svg" xmlns:xlink="http://www.w3.org/1999/xlink">
    <!-- Generator: Sketch 39.1 (31720) - http://www.bohemiancoding.com/sketch -->
    <title>shot</title>
    <desc>Created with Sketch.</desc>
    <defs></defs>
    <g id="Page-1" stroke="none" stroke-width="1" fill="none" fill-rule="evenodd" stroke-linecap="square">
        <g id="shot" transform="translate(7.000000, 0.000000)" stroke="#FFD300" stroke-width="15">
            <path d="M0.5,40.5 L228.5,40.5" id="Line"></path>
            <path d="M310.5,18.5 L538.5,18.5" id="Line"></path>
            <path d="M633.5,69.5 L861.5,69.5" id="Line"></path>
            <path d="M988.5,40.5 L1216.5,40.5" id="Line"></path>
            <path d="M1298.5,18.5 L1526.5,18.5" id="Line"></path>
            <path d="M1621.5,69.5 L1849.5,69.5" id="Line"></path>
            <path d="M1975.5,29.5 L2203.5,29.5" id="Line"></path>
            <path d="M2285.5,7.5 L2513.5,7.5" id="Line"></path>
            <path d="M2608.5,58.5 L2836.5,58.5" id="Line"></path>
            <path d="M2918.5,29.5 L3146.5,29.5" id="Line"></path>
            <path d="M3228.5,7.5 L3456.5,7.5" id="Line"></path>
            <path d="M3551.5,58.5 L3779.5,58.5" id="Line"></path>
            <path d="M3883.5,29.5 L4111.5,29.5" id="Line"></path>
            <path d="M4193.5,7.5 L4421.5,7.5" id="Line"></path>
            <path d="M4516.5,58.5 L4744.5,58.5" id="Line"></path>
        </g>
    </g>
</svg>