<svg width="379" height="395" viewBox="0 0 379 395" xmlns="http://www.w3.org/2000/svg"><title>смайл</title><g transform="translate(0 1)" fill="none" fill-rule="evenodd"><ellipse stroke="#FFF" fill="#000" cx="189.5" cy="218.5" rx="172.5" ry="174.5"/><path d="M39.373 239.235c1.3 9.736-37.16 19.027-34.144 28.095 2.109 6.34-3.69 33.507 5.99 39.473 8.999 5.547 23.356 19.298 35.993 18.922 11.3-.336 21.232-14.822 24.623-10.593C99.655 349.826 142.138 372 189.74 372c53.626 0 100.756-28.141 127.744-70.622 1.227-1.931-16.029 21.007-5.604 21.368 12.964.449 53.98-21.368 53.98-21.368s4.915-25.717-2.15-39.178c-3.975-7.574-6.94-17.392-12.68-20.31-3.719-1.89-11.767 3.091-11.3 0a156.452 156.452 0 0 0 1.75-23.39c0-84.776-67.936-153.5-151.74-153.5S38 133.724 38 218.5c0 7.032.467 13.954 1.373 20.735z" stroke="#FEF200" fill="#FEF200"/><ellipse stroke="#000" fill="#000" cx="252" cy="178" rx="25" ry="40"/><ellipse stroke="#000" fill="#000" cx="132" cy="179" rx="25" ry="40"/><path d="M171.11 254.996c3.412-4.92 2.264-10.375.722-10.953-1.543-.578-8.222 1.946-11.633 6.867-3.412 4.921-3.45 9.932-.722 10.953 2.728 1.022 8.221-1.946 11.633-6.867zM156.226 29.45c-3.583-7-9.127-13.258-8.102-14.303 1.026-1.044 8.306 3.575 16.146 10.27 11.738 10.024 25.3 23.8 25.3 23.8l-26.597-1.199s-2.3-9.88-6.747-18.568z" stroke="#000" fill="#000"/><path d="M188.512 26.377c.122-11.808-3.021-25.86-2.535-26.356.462-.47 5.28 6.895 9.248 18.047 4.847 13.62 8.958 31.588 8.958 31.588L185 50.353s3.376-10.915 3.512-23.976zM229.228 262.375c-2.894.733-7.772-2.768-10.219-7.99-2.446-5.222-.277-10.506 1.36-10.92 1.636-.414 7.772 2.768 10.219 7.99 2.446 5.222 1.535 10.188-1.36 10.92" stroke="#000" fill="#000"/><path d="M96.57 361.59c5.14-1.483 15.49-6.442 15.49-6.442s10.632-4.993 15.865-6.736c6.283-2.092 19.957-4.77 19.957-4.77s27.008-5.073 38.555-5.073c8.187 0 25.522.826 35.738 2.95 1.849.383 10.683 2.053 19.524 4.668 11.404 3.374 23.128 7.817 23.128 7.817s6.323 2.152 12.53 4.747c7.836 3.276 16.783 7.079 27.013 6.153 5.44-.493 12.294-2.695 17.09-6.153 3.277-2.361 5.225-4.747 6.677-7.175 1.415-2.368 4.294-7.513 3.265-13.007-2.431-12.971-12.405-29.752-12.434-29.932-1.14-7.162-1.524-8.727-.985-14.852.54-6.126 1.566-11.45 1.566-11.45s3.889 1.04 5.605 1.904c1.937.974 5.355 3.609 5.355 3.609s14.373-12.834 14.373-14.673c0-2.65-31.718-22.326-54.973 0-1.778 1.708 8.99 9.026 8.599 11.064-1.942 10.127.077 23.325 1.099 31.042 1.021 7.717 4.496 11.21 7.68 16.625 3.184 5.415 4.806 10.388 0 11.735-2.005.562-9.291 2.55-18.24-.914-11.3-4.375-30.587-12.23-42.016-15.959-11.695-3.815-37.934-7.803-57.683-7.803-19.748 0-32.819 1.824-40.618 3.133-23.403 3.93-56.742 22.215-69.222 22.883-1.337.072-6.79-.418-8.941-2.254-2.3-1.963-1.26-5.284-1.26-5.284s7.053-9.527 11.006-23.841c1.8-6.52 1.835-19.817 1.835-19.817v-8.12s9.675-8.628 11.053-12.49c.557-1.559-9.328-12.398-28.424-11.061C45.68 263.451 38 272.264 38 273.837c0 1.572 13.877 14.01 13.877 14.01s3.365-2.677 5.243-3.608c1.18-.585 3.929-.94 3.929-.94s1.734 16.424.867 22.547c-.867 6.123-12.366 20.206-13.028 33.39-.662 13.184 12.16 21.332 12.16 21.332s3.377 2.076 7.326 3.094c4.31 1.11 9.223 1.242 9.223 1.242s9.904-.7 18.972-3.315z" stroke="#000" fill="#000"/><path d="M268 259.021s12.42 1.58 25.062-3.043c12.642-4.623 24.265-20.216 24.265-20.216s41.942 8.827 40.455 47.866c-.307 8.065-8.028 19.852-16.376 24.979-10.137 6.225-21.164 3.653-21.164 3.653s.908 19.225 4.612 19.43c32.928 1.827 53.343-26.067 53.343-52.3 0-13.893-3.546-25.952-22.708-46.063-19.163-20.11-49.796-18.284-49.796-18.284s-8.205 14.138-14.164 18.284c-5.856 4.075-21.281 6.38-21.281 6.38L268 259.021zM111 259.021s-12.42 1.58-25.062-3.043c-12.642-4.623-24.265-20.216-24.265-20.216s-41.942 8.827-40.455 47.866c.307 8.065 8.028 19.852 16.376 24.979 10.137 6.225 21.164 3.653 21.164 3.653s-.908 19.225-4.612 19.43C21.218 333.518.803 305.624.803 279.39c0-13.893 3.546-25.952 22.708-46.063 19.163-20.11 49.796-18.284 49.796-18.284s8.205 14.138 14.164 18.284c5.856 4.075 21.281 6.38 21.281 6.38L111 259.021z" stroke="#000" fill="#000"/></g></svg>