<svg width="494" height="98" viewBox="0 0 494 98" xmlns="http://www.w3.org/2000/svg" xmlns:xlink="http://www.w3.org/1999/xlink"><title>мечь</title><defs><path d="M.132 48.5S19.542 44.214 132 41.126c93.499-2.567 229.913-3.717 273.251-4.033 2.94-.02 4.204-.891 6.245-.905C415.556 36.16 419 37 419 37v23s-2.763.92-7.504.917c-1.826 0-3.814-.908-6.245-.917-45.314-.162-191.957-.886-273.251-3.118C35.023 54.219.132 48.5.132 48.5z" id="a"/><mask id="d" x="0" y="0" width="418.868" height="24.73" fill="#fff"><use xlink:href="#a"/></mask><path d="M424 42h5.647s3.334-3.92 6.979-3.92c3.646 0 7.44 3.92 7.44 3.92s4.753-4.99 7.583-5.118c2.83-.128 8.627 5.118 8.627 5.118H477s-4.574 3.25-4.574 6.5S477 55 477 55h-16.724s-5.742 5.292-8.627 5.292c-2.884 0-7.583-5.292-7.583-5.292s-3.871 4.3-7.44 4.3c-3.569 0-6.979-4.3-6.979-4.3H424V42z" id="b"/><mask id="e" x="0" y="0" width="53" height="23.412" fill="#fff"><use xlink:href="#b"/></mask><path d="M418 69.227c0-1.84-2.23-5.888-2.23-5.888V34.12l2.23-4.27V19s1.5.41 3 .41 3-.41 3-.41v10.848l1.917 4.27V63.34L424 69.227V80s-1.5-1.156-3-1.156S418 80 418 80V69.227z" id="c"/><mask id="f" x="0" y="0" width="10.148" height="61" fill="#fff"><use xlink:href="#c"/></mask></defs><g fill="none" fill-rule="evenodd"><use stroke="#C6C6C6" mask="url(#d)" stroke-width="2" fill="#F1F1F1" xlink:href="#a"/><path d="M6.5 48.5h411" stroke="#FFF" stroke-linecap="square"/><use stroke="#7B0000" mask="url(#e)" stroke-width="2" fill="#B00" xlink:href="#b"/><use stroke="#7B0000" mask="url(#f)" stroke-width="2" fill="#BC0000" xlink:href="#c"/><path d="M421 19.662c4.97 0 9-1.691 9-6.662 0-2.474-5.206-5.112-5.206-5.112L421 .745l-4.516 7.143S412 10.506 412 13c0 4.97 4.03 6.662 9 6.662zM472 49c0 6.075 1.933 11 7.615 11 2.828 0 5.843-6.363 5.843-6.363L493.62 49l-8.163-5.52S482.466 38 479.615 38C473.933 38 472 42.925 472 49zM421 79c4.97 0 9 1.692 9 6.662 0 2.474-5.206 5.112-5.206 5.112L421 97.917l-4.516-7.143S412 88.156 412 85.662c0-4.97 4.03-6.662 9-6.662z" stroke="#FFF" fill="#B00"/></g></svg>