<?xml version="1.0" encoding="UTF-8" standalone="no"?>
<svg width="1149px" height="1076px" viewBox="0 0 1149 1076" version="1.1" xmlns="http://www.w3.org/2000/svg" xmlns:xlink="http://www.w3.org/1999/xlink">
    <!-- Generator: Sketch 39.1 (31720) - http://www.bohemiancoding.com/sketch -->
    <title>Slice</title>
    <desc>Created with Sketch.</desc>
    <defs></defs>
    <g id="Page-1" stroke="none" stroke-width="1" fill="none" fill-rule="evenodd">
        <g id="unicorn" transform="translate(-1266.000000, -37.000000)">
            <path d="M1879,1196 C1955.61473,1196 1847.25838,920.362938 1909.77979,884.911317 C1973.91217,848.546219 2131.56348,937.62871 2200.13507,920.550951 C2268.70667,903.473193 2319.7243,850.822031 2319.7243,764.120043 C2319.7243,711.407236 2287.73828,584.59688 2255.28516,597.928515 C2222.83203,611.260149 2073.92886,610.361291 2038.03912,569.162843 C2001.82251,527.589178 2038.59221,370.260894 2002.9115,344.176409 C1982.8993,329.546432 1916.43077,367.94237 1903.26614,367.726466 C1893.80535,367.571306 1935.23348,301.816547 1930.84259,256.638567 C1925.06113,197.152865 1859.86383,99.9846138 1859.86383,99.9846138 C1859.86383,99.9846138 1835.4665,125.721898 1822.6232,185.787551 C1816.70189,213.480377 1819.37979,242.716346 1820.08453,265.967791 C1820.83071,290.586233 1816.71199,308.495371 1816.9986,310.745394 C1818.39817,321.732655 1824.54907,310.745399 1822.6232,310.745399 C1813.83845,310.745399 1819.22546,310.687804 1820.08453,289.520606 C1820.66574,275.199907 1819.15286,223.282248 1809.93256,204.720603 C1785.5673,155.670225 1713.04337,110.564605 1713.04337,110.564605 C1713.04337,110.564605 1676.42865,191.671979 1674.54221,261.226985 C1673.18167,311.391536 1698.1376,340.076688 1688.73598,344.176402 C1533.45881,411.887241 1444,569.423581 1444,752.5 C1444,997.438287 1638.75613,1196 1879,1196 Z" id="Oval-13" stroke="#979797" fill="#FFFFFF"></path>
            <path d="M1582.81491,1082.71386 C1582.81491,1082.71386 1532.55357,612.044477 1639.8206,479.887601 C1743.287,352.41323 1913.28256,368.285454 2064.90237,382.650419 C2216.52218,397.015383 2298.37994,533.405979 2348.70828,527.112576 C2439.12764,515.805914 2350.38902,137.68982 2348.70828,132.424578 C2325.2995,59.0923062 2024.38466,291.877683 1800.5502,311.657749 C1748.81818,316.229265 1739.8894,311.657743 1667.02802,326.544226 C1471.5741,366.47788 1383.27911,632.743233 1400.33838,746.038791 C1417.39765,859.334348 1481.38821,946.252511 1508.27483,995.859189 C1535.16145,1045.46587 1582.81491,1082.71386 1582.81491,1082.71386 Z" id="Oval-17" stroke="#979797" fill="#000000"></path>
            <ellipse id="Oval-18" stroke="#979797" fill="#282828" cx="2314.5" cy="302" rx="58.5" ry="148"></ellipse>
            <path d="M2318,421 C2343.95738,421 2365,367.945743 2365,302.5 C2365,237.054257 2343.95738,184 2318,184 C2292.04262,184 2271,237.054257 2271,302.5 C2271,367.945743 2292.04262,421 2318,421 Z" id="Oval-18" stroke="#979797" fill="#000000"></path>
            <path d="M2327,371 C2341.91169,371 2354,340.555363 2354,303 C2354,265.444637 2341.91169,235 2327,235 C2312.08831,235 2300,265.444637 2300,303 C2300,340.555363 2312.08831,371 2327,371 Z" id="Oval-18" stroke="#979797" fill="#151414"></path>
            <path d="M1894.5,588 C1924.04723,588 1948,563.151804 1948,532.5 C1948,501.848196 1924.04723,477 1894.5,477 C1864.95277,477 1841,501.848196 1841,532.5 C1841,563.151804 1864.95277,588 1894.5,588 Z" id="Oval-16" stroke="#979797" fill="#000000"></path>
            <ellipse id="Oval-19" stroke="#979797" fill="#D8D8D8" cx="1874.5" cy="515.5" rx="15.5" ry="17.5"></ellipse>
            <path d="M2241.52607,737.543198 C2255.75451,737.543198 2267.28893,728.659055 2267.28893,719.270214 C2267.28893,709.881373 2255.75451,719.270214 2241.52607,719.270214 C2227.29764,719.270214 2215.76322,709.881373 2215.76322,719.270214 C2215.76322,728.659055 2227.29764,737.543198 2241.52607,737.543198 Z" id="Oval-14" stroke="#979797" fill="#2A2A2A" transform="translate(2241.526073, 726.320297) rotate(-80.000000) translate(-2241.526073, -726.320297) "></path>
            <path d="M1635.98913,515.420175 C1649.21299,515.420175 1909.05142,428.639089 1920.8041,405.265534 C1935.55688,375.925417 1830.33561,325.645851 1817.86231,310.531858 C1796.5339,284.688056 1810.47937,304.728024 1780.65599,304.728024 C1750.83261,304.728024 1686.5191,294.070887 1686.5191,322.789694 C1686.5191,351.508501 1606.16575,515.420175 1635.98913,515.420175 Z" id="Oval-15" stroke="#FFFFFF" fill="#FFFFFF"></path>
            <path d="M2119.07154,17.6459236 C2119.07154,17.6459236 2023.82467,380.788412 2004.35735,402.469168 C1984.89003,424.149923 1973.30518,423.059552 1945.21758,414.479238 C1921.93653,407.367251 1910.4532,402.469168 1895.98561,367.402334 C1881.51802,332.335501 2119.07154,17.6459236 2119.07154,17.6459236 Z" id="Triangle-5" stroke="#521700" stroke-width="2" fill="#E2FF11" transform="translate(2007.211082, 218.924751) rotate(11.000000) translate(-2007.211082, -218.924751) "></path>
            <path d="M1915.28546,277.134242 C1915.28546,277.134242 1909.21717,298.031045 1915.28546,311.244784 C1922.18912,326.27755 1938.90609,341.805837 1946.59867,345.259646 C1955.14736,349.097832 1972.20435,351.727489 1982.99315,350.89622 C1995.1891,349.956532 2010.43889,332.590865 2010.43889,332.590865" id="Line" stroke="#521701" stroke-width="3" stroke-linecap="square"></path>
            <path d="M1997.5,194.5 C1997.5,194.5 1996.36466,223.508369 2020.08545,232.5 C2043.80624,241.491631 2063.5,232.5 2063.5,232.5" id="Line" stroke="#521701" stroke-width="3" stroke-linecap="square"></path>
            <path d="M2026.50282,164 C2026.50282,164 2025.56536,186.79174 2045.15196,193.856422 C2064.73857,200.921104 2081,193.856422 2081,193.856422" id="Line" stroke="#521701" stroke-width="3" stroke-linecap="square"></path>
            <path d="M2093.00341,102 C2093.00341,102 2092.55622,113.049217 2101.89954,116.474107 C2111.24287,119.898997 2119,116.474107 2119,116.474107" id="Line" stroke="#521701" stroke-width="3" stroke-linecap="square"></path>
            <path d="M2068.00499,125 C2068.00499,125 2067.35139,138.123996 2081.00702,142.191999 C2094.66266,146.260001 2106,142.191999 2106,142.191999" id="Line" stroke="#521701" stroke-width="3" stroke-linecap="square"></path>
            <path d="M1958.37331,231 C1958.37331,231 1953.03336,249.388686 1958.37331,261.016461 C1964.44837,274.244936 1979.15891,287.909457 1985.92819,290.948726 C1993.45083,294.326238 2008.46058,296.640273 2017.95447,295.908777 C2028.68661,295.081873 2036,284.120423 2036,284.120423" id="Line" stroke="#521701" stroke-width="3" stroke-linecap="square"></path>
            <path d="M1033.31691,1453.48471 C1289.87436,1453.48471 1473.07344,1660.31326 1722.07593,1628.70516 C1971.07841,1597.09707 1993.26659,1401.398 1993.26659,1209.32216 C1993.26658,1017.24633 1834.95261,985.346148 1590.7511,944.200022 C1492.19479,927.594022 1386.97727,968.849294 1212.90254,944.200021 C1038.82782,919.550748 688.867893,884.286785 569.065443,1046.64843 C482.849695,1163.49187 505.901282,1417.53154 525.805677,1453.48471 C569.065444,1531.6245 673.542294,1453.48471 1033.31691,1453.48471 Z" id="Oval-20" stroke-opacity="0" stroke="#FFFFFF" fill="#FFFFFF"></path>
            <path d="M1296.3649,1052.25101 C1322.32228,1052.25101 1575,1049.51429 1575,967.5 C1575,885.485715 1553.95738,819 1528,819 C1507.32768,819 1481.77589,850.774857 1475.48421,909.372322 C1473.87569,924.353298 1481,950.80144 1481,967.5 C1481,1049.51429 1270.40752,1052.25101 1296.3649,1052.25101 Z" id="Oval-24" stroke="#000000" fill="#000000"></path>
        </g>
    </g>
</svg>