<?xml version="1.0" encoding="UTF-8" standalone="no"?>
<svg width="1990px" height="674px" viewBox="0 0 1990 674" version="1.1" xmlns="http://www.w3.org/2000/svg" xmlns:xlink="http://www.w3.org/1999/xlink">
    <!-- Generator: Sketch 39.1 (31720) - http://www.bohemiancoding.com/sketch -->
    <title>weapons</title>
    <desc>Created with Sketch.</desc>
    <defs>
        <path d="M1034,98.0023702 C1034,93.5827832 1037.5912,90 1041.9969,90 L1946.99124,90 C1951.40781,90 1957.38074,92.6561933 1960.23538,96.0344085 C1960.23538,96.0344085 1989.59894,126.25 1989.59894,162.5 C1989.59894,198.75 1960.23538,228.965591 1960.23538,228.965591 C1957.33741,232.298303 1951.39695,235 1946.99124,235 L1041.9969,235 C1037.58034,235 1034,231.41571 1034,226.99763 L1034,98.0023702 Z" id="path-1"></path>
        <mask id="mask-2" maskContentUnits="userSpaceOnUse" maskUnits="objectBoundingBox" x="0" y="0" width="955.598938" height="145" fill="white">
            <use xlink:href="#path-1"></use>
        </mask>
    </defs>
    <g id="Page-1" stroke="none" stroke-width="1" fill="none" fill-rule="evenodd">
        <g id="weapons" transform="translate(0.000000, 1.000000)" stroke="#979797">
            <use id="Rectangle-16" mask="url(#mask-2)" stroke-width="2" fill="#0F0E0E" xlink:href="#path-1"></use>
            <path d="M6.76859617,147.971918 C6.76859617,147.971918 15.5140624,149.538173 12.9274738,216.397217 C12.0252957,239.717031 21.3676058,274.615799 21.3948498,300.050446 C21.4457155,347.53817 4.51338358,363.171342 12.9274738,376.437164 C21.3415639,389.702986 72.5812467,374.981688 72.9717904,381.367676 C74.2016868,401.478369 112.804267,268.83905 112.804267,268.83905 C112.804267,268.83905 253.059584,256.156281 260.388122,274.870056 C275.551407,313.590237 277.19902,362.218245 339.00679,381.367676 C400.81456,400.517107 504.938888,350.63736 504.938888,350.63736 C504.938888,350.63736 469.201309,439.913513 542.296707,485.513031 C615.392105,531.112549 648.615266,439.600871 673.589218,457.076508 C680.614154,461.992239 673.589223,471.712006 673.589223,471.712006 C673.589223,471.712006 575.124388,610.539186 613.708057,628.729542 C665.029726,652.925256 715.024586,668.614775 760.815536,671.570251 C784.801101,673.118347 876.56337,441.04654 855.795476,350.637365 C843.531468,297.24828 835.90842,255.040441 847.623641,256.156281 C922.356088,263.274323 923.245907,325 945,325 C1006.88962,325 1035.0923,296.509531 1040.95568,249.25499 C1043.98722,224.822979 1034.41318,193.087074 1034.41318,162.5 C1034.41318,107.712764 1052.99927,67.2927123 1029.54296,53.3443489 C1014.57579,44.4440764 953.622609,53.3443489 953.622609,53.3443489 C953.622609,53.3443489 629.733783,46.1249784 484.141316,53.3443489 C472.679669,53.9126879 480.363484,37.3501511 462.635701,38.6574669 C444.907918,39.9647827 454.133489,44.1236534 446.064565,44.1236534 C435.091766,44.1236534 448.698151,4.54747351e-13 437.725352,4.54747351e-13 L393.874593,4.54747351e-13 L393.874593,44.1236534 C393.874593,44.1236534 348.341371,41.5261718 331.367879,44.1236534 C313.399352,46.8734069 321.369214,62.6506287 304.1675,65.5686493 C286.730175,68.5266381 95.868309,58.0859627 81.4396496,61.3625851 C68.5478759,64.2901942 56.9619853,67.3478065 46.8695269,70.5404587 C33.650388,74.7222061 22.0358284,65.1533213 12.927474,65.5686493 C2.14622946,66.0602587 0.663441657,78.3686159 0.663441657,85.1713729 C0.663441657,107.913554 6.76859617,147.971918 6.76859617,147.971918 Z" id="Oval-26" fill="#0F0E0E"></path>
            <ellipse id="Oval-27" fill="#D8D8D8" cx="381.5" cy="280.5" rx="75.5" ry="66.5"></ellipse>
            <circle id="Oval-27" fill="#D8D8D8" cx="604.5" cy="385.5" r="66.5"></circle>
        </g>
    </g>
</svg>